<svg width="351" height="133" viewBox="0 0 351 133" fill="none" xmlns="http://www.w3.org/2000/svg">
<mask id="mask0_1_367" style="mask-type:alpha" maskUnits="userSpaceOnUse" x="0" y="0" width="351" height="133">
<rect x="0.5" y="0.5" width="350" height="132" rx="15.5" fill="#F5C25B" stroke="#E2E2E2"/>
</mask>
<g mask="url(#mask0_1_367)">
<rect x="0.5" y="0.5" width="350" height="132" rx="15.5" fill="#F5C25B" stroke="#E2E2E2"/>
<ellipse cx="320.9" cy="66.5" rx="93.3619" ry="91.5" fill="#FAE3A4"/>
<ellipse cx="320.9" cy="66.5" rx="62.7514" ry="61.5" fill="#FDF2DB"/>
<ellipse cx="320.9" cy="66.5" rx="42.3445" ry="41.5" fill="white"/>
<rect x="304.064" y="74" width="32.6512" height="4" fill="#FAE3A4"/>
<path d="M325.468 78C325.483 78.1647 325.491 78.3314 325.491 78.5C325.491 81.5374 322.979 83.9998 319.88 84C316.78 84 314.267 81.5376 314.267 78.5C314.267 78.3314 314.277 78.1647 314.292 78H325.468Z" fill="black"/>
<path d="M320.9 48C322.308 48 323.45 49.1193 323.45 50.5C323.45 50.7105 323.42 50.914 323.37 51.1094C329.749 51.9403 334.674 57.395 334.674 64V74H306.105V64C306.105 57.0555 311.55 51.3828 318.403 51.0186C318.367 50.8513 318.349 50.6778 318.349 50.5C318.349 49.1193 319.491 48.0001 320.9 48Z" fill="#F5C25B"/>
</g>
</svg>
