<svg width="20" height="20" viewBox="0 0 20 20" fill="none" xmlns="http://www.w3.org/2000/svg">
<path d="M3.24412 1.92109C3.64787 1.89867 4.00675 2.07056 4.30583 2.32092C4.99369 2.8889 6.21988 4.13322 6.80681 4.82078C8.15263 6.39767 6.12642 7.28701 5.30024 8.35571C5.23669 8.43791 5.16192 8.5388 5.16566 8.64717C5.17313 8.88258 5.77501 9.8616 5.93576 10.1045C6.9227 11.5767 8.65358 13.3106 10.1676 14.2336C10.3396 14.3382 11.2705 14.8501 11.3938 14.8426C11.4723 14.8389 11.5172 14.7903 11.5733 14.7455C12.6462 13.9383 13.5808 11.8421 15.1696 13.1835C15.8649 13.7702 17.0837 14.9884 17.6706 15.6834C18.1192 16.214 18.2426 16.7932 17.8725 17.4098C17.6556 17.7759 16.2388 19.1772 15.8687 19.4687C13.992 20.9447 10.1863 18.9904 8.44796 17.9067C5.77501 16.2364 3.34506 13.7254 1.75624 11.0013C0.799211 9.36088 -0.853159 5.84837 0.530046 4.13696C0.911363 3.66613 1.8983 2.68712 2.36934 2.30224C2.61981 2.09672 2.9114 1.93978 3.24038 1.92109H3.24412Z" fill="url(#paint0_linear_497_1690)"/>
<path d="M10.1307 1.55867C10.1681 1.12522 10.2242 0.684283 10.2914 0.258299C10.3027 0.183564 10.2989 -0.0107447 10.3812 0.000465413C10.8485 0.0527794 11.4017 0.194775 11.8578 0.321823C16.0374 1.48768 19.3047 5.08239 20 9.37587L18.4897 9.6337C17.7608 5.48969 14.3289 2.09302 10.127 1.56241L10.1307 1.55867Z" fill="url(#paint1_linear_497_1690)"/>
<path d="M15.9527 9.64482L14.4312 9.92134C14.0499 7.66436 12.2069 5.85953 9.94141 5.54191L10.1321 3.9837C13.0555 4.40222 15.4892 6.72271 15.9527 9.64482Z" fill="url(#paint2_linear_497_1690)"/>
<defs>
<linearGradient id="paint0_linear_497_1690" x1="9.04524" y1="1.91913" x2="9.04524" y2="20" gradientUnits="userSpaceOnUse">
<stop stop-color="#641BB4"/>
<stop offset="1" stop-color="#B66A53"/>
</linearGradient>
<linearGradient id="paint1_linear_497_1690" x1="15.0635" y1="0" x2="15.0635" y2="9.6337" gradientUnits="userSpaceOnUse">
<stop stop-color="#641BB4"/>
<stop offset="1" stop-color="#B66A53"/>
</linearGradient>
<linearGradient id="paint2_linear_497_1690" x1="12.9471" y1="3.9837" x2="12.9471" y2="9.92134" gradientUnits="userSpaceOnUse">
<stop stop-color="#641BB4"/>
<stop offset="1" stop-color="#B66A53"/>
</linearGradient>
</defs>
</svg>
