<svg width="24" height="24" viewBox="0 0 24 24" fill="none" xmlns="http://www.w3.org/2000/svg">
<path d="M19.9995 2H3.99951C2.89951 2 2.00951 2.9 2.00951 4L1.99951 22L5.99951 18H19.9995C21.0995 18 21.9995 17.1 21.9995 16V4C21.9995 2.9 21.0995 2 19.9995 2ZM6.99951 9H16.9995C17.5495 9 17.9995 9.45 17.9995 10C17.9995 10.55 17.5495 11 16.9995 11H6.99951C6.44951 11 5.99951 10.55 5.99951 10C5.99951 9.45 6.44951 9 6.99951 9ZM12.9995 14H6.99951C6.44951 14 5.99951 13.55 5.99951 13C5.99951 12.45 6.44951 12 6.99951 12H12.9995C13.5495 12 13.9995 12.45 13.9995 13C13.9995 13.55 13.5495 14 12.9995 14ZM16.9995 8H6.99951C6.44951 8 5.99951 7.55 5.99951 7C5.99951 6.45 6.44951 6 6.99951 6H16.9995C17.5495 6 17.9995 6.45 17.9995 7C17.9995 7.55 17.5495 8 16.9995 8Z" fill="url(#paint0_linear_497_1684)"/>
<defs>
<linearGradient id="paint0_linear_497_1684" x1="11.9995" y1="2" x2="11.9995" y2="22" gradientUnits="userSpaceOnUse">
<stop stop-color="#641BB4"/>
<stop offset="1" stop-color="#B66A53"/>
</linearGradient>
</defs>
</svg>
