<svg width="68" height="32" viewBox="0 0 68 32" fill="none" xmlns="http://www.w3.org/2000/svg">
<rect width="68" height="32" rx="16" fill="#6C27B8"/>
<rect x="2" y="2.5" width="27" height="27" rx="13.5" fill="#641BB4"/>
<rect x="2.25" y="2.75" width="26.5" height="26.5" rx="13.25" stroke="white" stroke-opacity="0.11" stroke-width="0.5"/>
<path d="M23.64 21.62C22.98 17.72 18.3 16.44 17.68 16.3C16.38 17.32 14.54 17.32 13.24 16.3C12.62 16.44 8.03998 17.7 7.37998 21.62C7.03998 23.26 7.13998 24.66 7.97998 24.94C8.47998 25.1 9.29998 24.9 10.18 24.62C10.2 24.62 10.2 24.62 10.22 24.6H10.24C10.78 24.42 11.16 23.92 11.16 23.34V23.28C11.16 22.78 10.88 22.34 10.48 22.12C11.18 20.04 13.16 18.56 15.5 18.56C17.82 18.56 19.8 20.06 20.54 22.14C20.14 22.38 19.86 22.8 19.86 23.3V23.36C19.86 23.96 20.26 24.46 20.8 24.64C21.7 24.9 22.5 25.12 22.98 24.96C23.84 24.7 23.98 23.26 23.64 21.62Z" fill="white"/>
<path d="M15.52 16.12C17.9169 16.12 19.86 14.0784 19.86 11.56C19.86 9.04158 17.9169 7 15.52 7C13.1231 7 11.18 9.04158 11.18 11.56C11.18 14.0784 13.1231 16.12 15.52 16.12Z" fill="white"/>
<path d="M16.88 23.1C17.02 23.34 17.1 23.6 17.1 23.9C17.1 24.26 16.98 24.58 16.78 24.84C17.88 24.78 18.8 24.64 19.58 24.46C19.6 24.28 19.62 24.08 19.62 23.88C19.62 22.9 19.28 22.02 18.72 21.3L16.88 23.1Z" fill="white"/>
<path d="M14.12 23.1L12.3 21.32C11.72 22.02 11.38 22.92 11.38 23.9C11.38 24.1 11.4 24.3 11.42 24.48C12.2 24.66 13.12 24.78 14.22 24.84C14.02 24.58 13.9 24.24 13.9 23.9C13.9 23.6 13.98 23.32 14.12 23.1Z" fill="white"/>
<path d="M15.5 23.1C15.06 23.1 14.7 23.46 14.7 23.9C14.7 24.34 15.06 24.7 15.5 24.7C15.94 24.7 16.3 24.34 16.3 23.9C16.3 23.46 15.94 23.1 15.5 23.1Z" fill="white"/>
<path d="M15.5 19.78C14.48 19.78 13.56 20.14 12.84 20.76L14.68 22.54C14.92 22.4 15.2 22.32 15.5 22.32C15.8 22.32 16.1 22.4 16.34 22.56L18.18 20.78C17.44 20.16 16.52 19.78 15.5 19.78Z" fill="white"/>
<path d="M50.0625 13.9394L54.4306 19.0369C54.5011 19.119 54.5884 19.1849 54.6867 19.2301C54.785 19.2753 54.8918 19.2987 55 19.2987C55.1082 19.2987 55.2151 19.2753 55.3134 19.2301C55.4116 19.1849 55.499 19.119 55.5694 19.0369L59.9375 13.9394C60.3544 13.4528 60.0088 12.7012 59.3681 12.7012H50.6306C49.99 12.7012 49.6444 13.4528 50.0625 13.9394Z" fill="white"/>
</svg>
