<svg width="151" height="151" viewBox="0 0 151 151" fill="none" xmlns="http://www.w3.org/2000/svg">
<g clip-path="url(#clip0_175_3207)">
<path opacity="0.1" fill-rule="evenodd" clip-rule="evenodd" d="M112.345 120.576C137.688 88.4048 106.443 92.1548 87.9132 64.6829C69.3832 37.211 72.7141 2.56171 45.2423 21.0917C17.7704 39.6218 10.5216 76.9137 29.0516 104.386C47.5816 131.857 87.0028 152.748 112.345 120.576Z" fill="#641BB4"/>
<path fill-rule="evenodd" clip-rule="evenodd" d="M106.29 49.7837C108.042 49.2647 109.998 49.9427 111.111 51.4337C111.957 52.5707 112.212 53.9837 111.816 55.3157C110.07 61.1927 105.126 65.5337 99.255 66.7367L106.062 73.5437C106.647 74.1287 106.647 75.0797 106.062 75.6647C105.768 75.9557 105.384 76.1027 105 76.1027C104.616 76.1027 104.232 75.9557 103.938 75.6617L96 67.7237L88.062 75.6647C87.768 75.9557 87.384 76.1027 87 76.1027C86.616 76.1027 86.232 75.9557 85.938 75.6617C85.353 75.0767 85.353 74.1257 85.938 73.5407L92.745 66.7337C86.871 65.5307 81.93 61.1897 80.181 55.3127C79.785 53.9837 80.043 52.5677 80.889 51.4337C82.002 49.9457 83.961 49.2647 85.713 49.7867C90.384 51.1757 94.065 54.6017 96 58.8887C97.935 54.5987 101.616 51.1757 106.29 49.7837ZM83.295 53.2277C83.133 53.4437 82.89 53.8907 83.058 54.4577C84.594 59.6207 89.133 63.3677 94.404 64.0067C93.765 58.7387 90.018 54.1997 84.855 52.6637C84.726 52.6247 84.597 52.6037 84.471 52.6037C84.027 52.6037 83.586 52.8377 83.295 53.2277ZM108.939 54.4577C107.403 59.6207 102.864 63.3677 97.596 64.0067C98.232 58.7387 101.979 54.1967 107.145 52.6607C107.271 52.6247 107.4 52.6037 107.529 52.6037C107.973 52.6037 108.414 52.8377 108.705 53.2277C108.867 53.4437 109.11 53.8907 108.939 54.4577ZM90.183 77.7857C89.331 78.6347 88.2 79.1027 87 79.1027C85.8 79.1027 84.669 78.6347 83.817 77.7857C82.965 76.9367 82.5 75.8027 82.5 74.6027C82.5 73.4027 82.968 72.2717 83.817 71.4197L87.252 67.9847C85.272 66.9947 83.499 65.6687 81.978 64.1027H66C63.519 64.1027 61.5 66.1217 61.5 68.6027V77.6027C61.5 80.0837 63.519 82.1027 66 82.1027H94.5V73.4657L90.183 77.7857ZM110.022 64.1027H126C128.481 64.1027 130.5 66.1217 130.5 68.6027V77.6027C130.5 80.0837 128.481 82.1027 126 82.1027H97.5V73.4657L101.817 77.7857C102.669 78.6347 103.8 79.1027 105 79.1027C106.2 79.1027 107.334 78.6377 108.183 77.7857C109.032 76.9337 109.5 75.8057 109.5 74.6027C109.5 73.3997 109.032 72.2687 108.183 71.4197L104.748 67.9847C106.728 66.9947 108.501 65.6717 110.022 64.1027ZM94.5 85.1027H66C65.487 85.1027 64.986 85.0487 64.5 84.9497V107.603C64.5 111.737 67.866 115.103 72 115.103H94.5V85.1027ZM126 85.1027H97.5V115.103H120C124.134 115.103 127.5 111.737 127.5 107.603V84.9497C127.014 85.0487 126.513 85.1027 126 85.1027Z" fill="#641BB4"/>
</g>
<defs>
<clipPath id="clip0_175_3207">
<rect width="150" height="150" fill="white" transform="translate(0.5 0.5)"/>
</clipPath>
</defs>
</svg>
