<svg width="218" height="136" viewBox="0 0 218 136" fill="none" xmlns="http://www.w3.org/2000/svg">
<path d="M11.0431 128L7.72309 122.3H5.52309V128H3.70309V114.06H8.20309C9.25642 114.06 10.1431 114.24 10.8631 114.6C11.5964 114.96 12.1431 115.447 12.5031 116.06C12.8631 116.673 13.0431 117.373 13.0431 118.16C13.0431 119.12 12.7631 119.967 12.2031 120.7C11.6564 121.433 10.8298 121.92 9.72309 122.16L13.2231 128H11.0431ZM5.52309 120.84H8.20309C9.18975 120.84 9.92975 120.6 10.4231 120.12C10.9164 119.627 11.1631 118.973 11.1631 118.16C11.1631 117.333 10.9164 116.693 10.4231 116.24C9.94309 115.787 9.20309 115.56 8.20309 115.56H5.52309V120.84ZM16.0111 115.26C15.6644 115.26 15.3711 115.14 15.1311 114.9C14.8911 114.66 14.7711 114.367 14.7711 114.02C14.7711 113.673 14.8911 113.38 15.1311 113.14C15.3711 112.9 15.6644 112.78 16.0111 112.78C16.3444 112.78 16.6244 112.9 16.8511 113.14C17.0911 113.38 17.2111 113.673 17.2111 114.02C17.2111 114.367 17.0911 114.66 16.8511 114.9C16.6244 115.14 16.3444 115.26 16.0111 115.26ZM16.8911 117.04V128H15.0711V117.04H16.8911ZM18.5129 122.48C18.5129 121.36 18.7396 120.38 19.1929 119.54C19.6463 118.687 20.2663 118.027 21.0529 117.56C21.8529 117.093 22.7463 116.86 23.7329 116.86C24.5863 116.86 25.3796 117.06 26.1129 117.46C26.8463 117.847 27.4063 118.36 27.7929 119V113.2H29.6329V128H27.7929V125.94C27.4329 126.593 26.8996 127.133 26.1929 127.56C25.4863 127.973 24.6596 128.18 23.7129 128.18C22.7396 128.18 21.8529 127.94 21.0529 127.46C20.2663 126.98 19.6463 126.307 19.1929 125.44C18.7396 124.573 18.5129 123.587 18.5129 122.48ZM27.7929 122.5C27.7929 121.673 27.6263 120.953 27.2929 120.34C26.9596 119.727 26.5063 119.26 25.9329 118.94C25.3729 118.607 24.7529 118.44 24.0729 118.44C23.3929 118.44 22.7729 118.6 22.2129 118.92C21.6529 119.24 21.2063 119.707 20.8729 120.32C20.5396 120.933 20.3729 121.653 20.3729 122.48C20.3729 123.32 20.5396 124.053 20.8729 124.68C21.2063 125.293 21.6529 125.767 22.2129 126.1C22.7729 126.42 23.3929 126.58 24.0729 126.58C24.7529 126.58 25.3729 126.42 25.9329 126.1C26.5063 125.767 26.9596 125.293 27.2929 124.68C27.6263 124.053 27.7929 123.327 27.7929 122.5ZM41.9086 122.1C41.9086 122.447 41.8886 122.813 41.8486 123.2H33.0886C33.1552 124.28 33.5219 125.127 34.1886 125.74C34.8686 126.34 35.6886 126.64 36.6486 126.64C37.4352 126.64 38.0886 126.46 38.6086 126.1C39.1419 125.727 39.5152 125.233 39.7286 124.62H41.6886C41.3952 125.673 40.8086 126.533 39.9286 127.2C39.0486 127.853 37.9552 128.18 36.6486 128.18C35.6086 128.18 34.6752 127.947 33.8486 127.48C33.0352 127.013 32.3952 126.353 31.9286 125.5C31.4619 124.633 31.2286 123.633 31.2286 122.5C31.2286 121.367 31.4552 120.373 31.9086 119.52C32.3619 118.667 32.9952 118.013 33.8086 117.56C34.6352 117.093 35.5819 116.86 36.6486 116.86C37.6886 116.86 38.6086 117.087 39.4086 117.54C40.2086 117.993 40.8219 118.62 41.2486 119.42C41.6886 120.207 41.9086 121.1 41.9086 122.1ZM40.0286 121.72C40.0286 121.027 39.8752 120.433 39.5686 119.94C39.2619 119.433 38.8419 119.053 38.3086 118.8C37.7886 118.533 37.2086 118.4 36.5686 118.4C35.6486 118.4 34.8619 118.693 34.2086 119.28C33.5686 119.867 33.2019 120.68 33.1086 121.72H40.0286ZM58.1109 117.04L54.6909 128H52.8109L50.1709 119.3L47.5309 128H45.6509L42.2109 117.04H44.0709L46.5909 126.24L49.3109 117.04H51.1709L53.8309 126.26L56.3109 117.04H58.1109ZM60.0571 115.26C59.7105 115.26 59.4171 115.14 59.1771 114.9C58.9371 114.66 58.8171 114.367 58.8171 114.02C58.8171 113.673 58.9371 113.38 59.1771 113.14C59.4171 112.9 59.7105 112.78 60.0571 112.78C60.3905 112.78 60.6705 112.9 60.8971 113.14C61.1371 113.38 61.2571 113.673 61.2571 114.02C61.2571 114.367 61.1371 114.66 60.8971 114.9C60.6705 115.14 60.3905 115.26 60.0571 115.26ZM60.9371 117.04V128H59.1171V117.04H60.9371ZM65.459 118.54V125C65.459 125.533 65.5724 125.913 65.799 126.14C66.0257 126.353 66.419 126.46 66.979 126.46H68.319V128H66.679C65.6657 128 64.9057 127.767 64.399 127.3C63.8924 126.833 63.639 126.067 63.639 125V118.54H62.219V117.04H63.639V114.28H65.459V117.04H68.319V118.54H65.459ZM75.1642 116.84C75.9908 116.84 76.7375 117.02 77.4042 117.38C78.0708 117.727 78.5908 118.253 78.9642 118.96C79.3508 119.667 79.5442 120.527 79.5442 121.54V128H77.7442V121.8C77.7442 120.707 77.4708 119.873 76.9242 119.3C76.3775 118.713 75.6308 118.42 74.6842 118.42C73.7242 118.42 72.9575 118.72 72.3842 119.32C71.8242 119.92 71.5442 120.793 71.5442 121.94V128H69.7242V113.2H71.5442V118.6C71.9042 118.04 72.3975 117.607 73.0242 117.3C73.6642 116.993 74.3775 116.84 75.1642 116.84ZM81.0371 122.48C81.0371 121.36 81.2638 120.38 81.7171 119.54C82.1705 118.687 82.7905 118.027 83.5771 117.56C84.3771 117.093 85.2705 116.86 86.2571 116.86C87.1105 116.86 87.9038 117.06 88.6371 117.46C89.3705 117.847 89.9305 118.36 90.3171 119V113.2H92.1571V128H90.3171V125.94C89.9571 126.593 89.4238 127.133 88.7171 127.56C88.0105 127.973 87.1838 128.18 86.2371 128.18C85.2638 128.18 84.3771 127.94 83.5771 127.46C82.7905 126.98 82.1705 126.307 81.7171 125.44C81.2638 124.573 81.0371 123.587 81.0371 122.48ZM90.3171 122.5C90.3171 121.673 90.1505 120.953 89.8171 120.34C89.4838 119.727 89.0305 119.26 88.4571 118.94C87.8971 118.607 87.2771 118.44 86.5971 118.44C85.9171 118.44 85.2971 118.6 84.7371 118.92C84.1771 119.24 83.7305 119.707 83.3971 120.32C83.0638 120.933 82.8971 121.653 82.8971 122.48C82.8971 123.32 83.0638 124.053 83.3971 124.68C83.7305 125.293 84.1771 125.767 84.7371 126.1C85.2971 126.42 85.9171 126.58 86.5971 126.58C87.2771 126.58 87.8971 126.42 88.4571 126.1C89.0305 125.767 89.4838 125.293 89.8171 124.68C90.1505 124.053 90.3171 123.327 90.3171 122.5ZM96.2528 118.82C96.5728 118.193 97.0261 117.707 97.6128 117.36C98.2128 117.013 98.9394 116.84 99.7928 116.84V118.72H99.3128C97.2728 118.72 96.2528 119.827 96.2528 122.04V128H94.4328V117.04H96.2528V118.82ZM102.034 115.26C101.687 115.26 101.394 115.14 101.154 114.9C100.914 114.66 100.794 114.367 100.794 114.02C100.794 113.673 100.914 113.38 101.154 113.14C101.394 112.9 101.687 112.78 102.034 112.78C102.367 112.78 102.647 112.9 102.874 113.14C103.114 113.38 103.234 113.673 103.234 114.02C103.234 114.367 103.114 114.66 102.874 114.9C102.647 115.14 102.367 115.26 102.034 115.26ZM102.914 117.04V128H101.094V117.04H102.914ZM109.296 126.32L112.696 117.04H114.636L110.336 128H108.216L103.916 117.04H105.876L109.296 126.32ZM125.627 122.1C125.627 122.447 125.607 122.813 125.567 123.2H116.807C116.873 124.28 117.24 125.127 117.907 125.74C118.587 126.34 119.407 126.64 120.367 126.64C121.153 126.64 121.807 126.46 122.327 126.1C122.86 125.727 123.233 125.233 123.447 124.62H125.407C125.113 125.673 124.527 126.533 123.647 127.2C122.767 127.853 121.673 128.18 120.367 128.18C119.327 128.18 118.393 127.947 117.567 127.48C116.753 127.013 116.113 126.353 115.647 125.5C115.18 124.633 114.947 123.633 114.947 122.5C114.947 121.367 115.173 120.373 115.627 119.52C116.08 118.667 116.713 118.013 117.527 117.56C118.353 117.093 119.3 116.86 120.367 116.86C121.407 116.86 122.327 117.087 123.127 117.54C123.927 117.993 124.54 118.62 124.967 119.42C125.407 120.207 125.627 121.1 125.627 122.1ZM123.747 121.72C123.747 121.027 123.593 120.433 123.287 119.94C122.98 119.433 122.56 119.053 122.027 118.8C121.507 118.533 120.927 118.4 120.287 118.4C119.367 118.4 118.58 118.693 117.927 119.28C117.287 119.867 116.92 120.68 116.827 121.72H123.747ZM129.049 118.82C129.369 118.193 129.822 117.707 130.409 117.36C131.009 117.013 131.736 116.84 132.589 116.84V118.72H132.109C130.069 118.72 129.049 119.827 129.049 122.04V128H127.229V117.04H129.049V118.82ZM135.71 118.82C136.03 118.193 136.483 117.707 137.07 117.36C137.67 117.013 138.396 116.84 139.25 116.84V118.72H138.77C136.73 118.72 135.71 119.827 135.71 122.04V128H133.89V117.04H135.71V118.82ZM141.131 128.12C140.784 128.12 140.491 128 140.251 127.76C140.011 127.52 139.891 127.227 139.891 126.88C139.891 126.533 140.011 126.24 140.251 126C140.491 125.76 140.784 125.64 141.131 125.64C141.464 125.64 141.744 125.76 141.971 126C142.211 126.24 142.331 126.533 142.331 126.88C142.331 127.227 142.211 127.52 141.971 127.76C141.744 128 141.464 128.12 141.131 128.12ZM143.27 122.5C143.27 121.367 143.497 120.38 143.95 119.54C144.403 118.687 145.03 118.027 145.83 117.56C146.643 117.093 147.57 116.86 148.61 116.86C149.957 116.86 151.063 117.187 151.93 117.84C152.81 118.493 153.39 119.4 153.67 120.56H151.71C151.523 119.893 151.157 119.367 150.61 118.98C150.077 118.593 149.41 118.4 148.61 118.4C147.57 118.4 146.73 118.76 146.09 119.48C145.45 120.187 145.13 121.193 145.13 122.5C145.13 123.82 145.45 124.84 146.09 125.56C146.73 126.28 147.57 126.64 148.61 126.64C149.41 126.64 150.077 126.453 150.61 126.08C151.143 125.707 151.51 125.173 151.71 124.48H153.67C153.377 125.6 152.79 126.5 151.91 127.18C151.03 127.847 149.93 128.18 148.61 128.18C147.57 128.18 146.643 127.947 145.83 127.48C145.03 127.013 144.403 126.353 143.95 125.5C143.497 124.647 143.27 123.647 143.27 122.5ZM160.078 128.18C159.052 128.18 158.118 127.947 157.278 127.48C156.452 127.013 155.798 126.353 155.318 125.5C154.852 124.633 154.618 123.633 154.618 122.5C154.618 121.38 154.858 120.393 155.338 119.54C155.832 118.673 156.498 118.013 157.338 117.56C158.178 117.093 159.118 116.86 160.158 116.86C161.198 116.86 162.138 117.093 162.978 117.56C163.818 118.013 164.478 118.667 164.958 119.52C165.452 120.373 165.698 121.367 165.698 122.5C165.698 123.633 165.445 124.633 164.938 125.5C164.445 126.353 163.772 127.013 162.918 127.48C162.065 127.947 161.118 128.18 160.078 128.18ZM160.078 126.58C160.732 126.58 161.345 126.427 161.918 126.12C162.492 125.813 162.952 125.353 163.298 124.74C163.658 124.127 163.838 123.38 163.838 122.5C163.838 121.62 163.665 120.873 163.318 120.26C162.972 119.647 162.518 119.193 161.958 118.9C161.398 118.593 160.792 118.44 160.138 118.44C159.472 118.44 158.858 118.593 158.298 118.9C157.752 119.193 157.312 119.647 156.978 120.26C156.645 120.873 156.478 121.62 156.478 122.5C156.478 123.393 156.638 124.147 156.958 124.76C157.292 125.373 157.732 125.833 158.278 126.14C158.825 126.433 159.425 126.58 160.078 126.58ZM180.471 116.84C181.325 116.84 182.085 117.02 182.751 117.38C183.418 117.727 183.945 118.253 184.331 118.96C184.718 119.667 184.911 120.527 184.911 121.54V128H183.111V121.8C183.111 120.707 182.838 119.873 182.291 119.3C181.758 118.713 181.031 118.42 180.111 118.42C179.165 118.42 178.411 118.727 177.851 119.34C177.291 119.94 177.011 120.813 177.011 121.96V128H175.211V121.8C175.211 120.707 174.938 119.873 174.391 119.3C173.858 118.713 173.131 118.42 172.211 118.42C171.265 118.42 170.511 118.727 169.951 119.34C169.391 119.94 169.111 120.813 169.111 121.96V128H167.291V117.04H169.111V118.62C169.471 118.047 169.951 117.607 170.551 117.3C171.165 116.993 171.838 116.84 172.571 116.84C173.491 116.84 174.305 117.047 175.011 117.46C175.718 117.873 176.245 118.48 176.591 119.28C176.898 118.507 177.405 117.907 178.111 117.48C178.818 117.053 179.605 116.84 180.471 116.84Z" fill="black"/>
<path d="M20.7802 42L13.5566 28.8887H11.5281V42H3.06756V7.26731H17.2674C20.0051 7.26731 22.3305 7.74558 24.2436 8.70213C26.1897 9.65868 27.641 10.9781 28.5976 12.6603C29.5541 14.3095 30.0324 16.1566 30.0324 18.2017C30.0324 20.5106 29.3727 22.5721 28.0533 24.3863C26.7669 26.2004 24.8538 27.4868 22.314 28.2455L30.3293 42H20.7802ZM11.5281 22.902H16.7726C18.3229 22.902 19.4774 22.5226 20.236 21.764C21.0276 21.0054 21.4234 19.9334 21.4234 18.548C21.4234 17.2286 21.0276 16.1896 20.236 15.431C19.4774 14.6723 18.3229 14.293 16.7726 14.293H11.5281V22.902ZM37.6194 11.5223C36.135 11.5223 34.9146 11.0935 33.9581 10.2359C33.0345 9.34533 32.5727 8.25684 32.5727 6.97045C32.5727 5.65107 33.0345 4.56258 33.9581 3.70498C34.9146 2.8144 36.135 2.36911 37.6194 2.36911C39.0707 2.36911 40.2581 2.8144 41.1817 3.70498C42.1382 4.56258 42.6165 5.65107 42.6165 6.97045C42.6165 8.25684 42.1382 9.34533 41.1817 10.2359C40.2581 11.0935 39.0707 11.5223 37.6194 11.5223ZM41.8249 14.392V42H33.3643V14.392H41.8249ZM44.2948 28.1465C44.2948 25.3098 44.8226 22.8195 45.8781 20.6755C46.9666 18.5315 48.4344 16.8823 50.2815 15.7278C52.1287 14.5734 54.1902 13.9961 56.4661 13.9961C58.2803 13.9961 59.9295 14.3755 61.4138 15.1341C62.9311 15.8928 64.1185 16.9153 64.9761 18.2017V5.38719H73.4367V42H64.9761V38.0419C64.1845 39.3612 63.0465 40.4167 61.5622 41.2084C60.1109 42 58.4122 42.3958 56.4661 42.3958C54.1902 42.3958 52.1287 41.8186 50.2815 40.6641C48.4344 39.4767 46.9666 37.811 45.8781 35.667C44.8226 33.49 44.2948 30.9832 44.2948 28.1465ZM64.9761 28.196C64.9761 26.085 64.3824 24.4193 63.195 23.1988C62.0405 21.9784 60.6222 21.3682 58.94 21.3682C57.2578 21.3682 55.8229 21.9784 54.6355 23.1988C53.481 24.3863 52.9038 26.0355 52.9038 28.1465C52.9038 30.2575 53.481 31.9397 54.6355 33.1931C55.8229 34.4136 57.2578 35.0238 58.94 35.0238C60.6222 35.0238 62.0405 34.4136 63.195 33.1931C64.3824 31.9727 64.9761 30.307 64.9761 28.196ZM103.603 27.7507C103.603 28.5423 103.554 29.3669 103.455 30.2245H84.3073C84.4392 31.9397 84.9834 33.2591 85.94 34.1827C86.9295 35.0733 88.1335 35.5185 89.5518 35.5185C91.6628 35.5185 93.1306 34.628 93.9552 32.8468H102.96C102.498 34.6609 101.657 36.2937 100.437 37.745C99.2492 39.1963 97.7484 40.3343 95.9343 41.1589C94.1202 41.9835 92.0916 42.3958 89.8487 42.3958C87.1439 42.3958 84.7361 41.8186 82.625 40.6641C80.514 39.5097 78.8648 37.8604 77.6774 35.7165C76.4899 33.5725 75.8962 31.0656 75.8962 28.196C75.8962 25.3263 76.4734 22.8195 77.6279 20.6755C78.8153 18.5315 80.4646 16.8823 82.5756 15.7278C84.6866 14.5734 87.1109 13.9961 89.8487 13.9961C92.5204 13.9961 94.8953 14.5569 96.9733 15.6784C99.0513 16.7998 100.668 18.3996 101.822 20.4776C103.009 22.5556 103.603 24.98 103.603 27.7507ZM94.9448 25.5242C94.9448 24.0729 94.45 22.9185 93.4605 22.0609C92.4709 21.2033 91.234 20.7745 89.7497 20.7745C88.3314 20.7745 87.1274 21.1868 86.1379 22.0114C85.1813 22.836 84.5876 24.0069 84.3567 25.5242H94.9448ZM153.882 7.26731L144.828 42H134.586L129.045 19.1417L123.305 42H113.064L104.257 7.26731H113.311L118.308 32.5499L124.493 7.26731H133.794L139.732 32.5499L144.778 7.26731H153.882ZM160.401 11.5223C158.917 11.5223 157.696 11.0935 156.74 10.2359C155.816 9.34533 155.354 8.25684 155.354 6.97045C155.354 5.65107 155.816 4.56258 156.74 3.70498C157.696 2.8144 158.917 2.36911 160.401 2.36911C161.852 2.36911 163.04 2.8144 163.963 3.70498C164.92 4.56258 165.398 5.65107 165.398 6.97045C165.398 8.25684 164.92 9.34533 163.963 10.2359C163.04 11.0935 161.852 11.5223 160.401 11.5223ZM164.607 14.392V42H156.146V14.392H164.607ZM184.146 34.8259V42H179.841C176.774 42 174.383 41.2578 172.667 39.7735C170.952 38.2563 170.095 35.7989 170.095 32.4015V21.4177H166.73V14.392H170.095V7.66312H178.555V14.392H184.096V21.4177H178.555V32.5005C178.555 33.3251 178.753 33.9188 179.149 34.2816C179.545 34.6445 180.204 34.8259 181.128 34.8259H184.146ZM203.85 14.0951C207.017 14.0951 209.556 15.1506 211.47 17.2616C213.383 19.3396 214.339 22.2093 214.339 25.8706V42H205.928V27.0085C205.928 25.1614 205.45 23.7266 204.493 22.7041C203.537 21.6815 202.25 21.1703 200.634 21.1703C199.018 21.1703 197.731 21.6815 196.775 22.7041C195.818 23.7266 195.34 25.1614 195.34 27.0085V42H186.88V5.38719H195.34V18.1027C196.198 16.8823 197.369 15.9092 198.853 15.1836C200.337 14.4579 202.003 14.0951 203.85 14.0951ZM16.08 56.2673C19.7412 56.2673 22.9407 56.993 25.6784 58.4443C28.4162 59.8956 30.5272 61.9406 32.0115 64.5794C33.5288 67.1852 34.2874 70.2033 34.2874 73.6337C34.2874 77.0311 33.5288 80.0491 32.0115 82.6879C30.5272 85.3267 28.3997 87.3717 25.629 88.823C22.8913 90.2743 19.7082 91 16.08 91H3.06756V56.2673H16.08ZM15.5357 83.6774C18.7352 83.6774 21.2255 82.8033 23.0067 81.0552C24.7879 79.307 25.6784 76.8332 25.6784 73.6337C25.6784 70.4342 24.7879 67.9438 23.0067 66.1627C21.2255 64.3815 18.7352 63.4909 15.5357 63.4909H11.5281V83.6774H15.5357ZM45.497 67.9933C46.4865 66.476 47.7234 65.2886 49.2077 64.431C50.692 63.5404 52.3413 63.0951 54.1554 63.0951V72.0504H51.83C49.719 72.0504 48.1357 72.5122 47.0802 73.4357C46.0247 74.3263 45.497 75.9096 45.497 78.1855V91H37.0365V63.392H45.497V67.9933ZM60.4753 60.5223C58.991 60.5223 57.7706 60.0935 56.814 59.2359C55.8905 58.3453 55.4287 57.2568 55.4287 55.9704C55.4287 54.6511 55.8905 53.5626 56.814 52.705C57.7706 51.8144 58.991 51.3691 60.4753 51.3691C61.9266 51.3691 63.1141 51.8144 64.0376 52.705C64.9942 53.5626 65.4725 54.6511 65.4725 55.9704C65.4725 57.2568 64.9942 58.3453 64.0376 59.2359C63.1141 60.0935 61.9266 60.5223 60.4753 60.5223ZM64.6808 63.392V91H56.2203V63.392H64.6808ZM81.2517 83.0837L87.2384 63.392H96.2431L86.4467 91H76.0071L66.2107 63.392H75.265L81.2517 83.0837ZM123.85 76.7507C123.85 77.5423 123.801 78.3669 123.702 79.2245H104.554C104.686 80.9397 105.23 82.2591 106.187 83.1827C107.176 84.0733 108.38 84.5185 109.799 84.5185C111.91 84.5185 113.377 83.628 114.202 81.8468H123.207C122.745 83.6609 121.904 85.2937 120.684 86.745C119.496 88.1963 117.995 89.3343 116.181 90.1589C114.367 90.9835 112.338 91.3958 110.095 91.3958C107.391 91.3958 104.983 90.8186 102.872 89.6641C100.761 88.5097 99.1116 86.8604 97.9242 84.7165C96.7367 82.5725 96.143 80.0656 96.143 77.196C96.143 74.3263 96.7203 71.8195 97.8747 69.6755C99.0622 67.5315 100.711 65.8823 102.822 64.7278C104.933 63.5734 107.358 62.9961 110.095 62.9961C112.767 62.9961 115.142 63.5569 117.22 64.6784C119.298 65.7998 120.914 67.3996 122.069 69.4776C123.256 71.5556 123.85 73.98 123.85 76.7507ZM115.192 74.5242C115.192 73.0729 114.697 71.9185 113.707 71.0609C112.718 70.2033 111.481 69.7745 109.997 69.7745C108.578 69.7745 107.374 70.1868 106.385 71.0114C105.428 71.836 104.834 73.0069 104.604 74.5242H115.192ZM134.795 67.9933C135.784 66.476 137.021 65.2886 138.506 64.431C139.99 63.5404 141.639 63.0951 143.453 63.0951V72.0504H141.128C139.017 72.0504 137.434 72.5122 136.378 73.4357C135.323 74.3263 134.795 75.9096 134.795 78.1855V91H126.334V63.392H134.795V67.9933ZM153.979 67.9933C154.968 66.476 156.205 65.2886 157.689 64.431C159.174 63.5404 160.823 63.0951 162.637 63.0951V72.0504H160.312C158.201 72.0504 156.617 72.5122 155.562 73.4357C154.506 74.3263 153.979 75.9096 153.979 78.1855V91H145.518V63.392H153.979V67.9933Z" fill="url(#paint0_linear_528_1906)"/>
<defs>
<linearGradient id="paint0_linear_528_1906" x1="0" y1="49" x2="218" y2="49" gradientUnits="userSpaceOnUse">
<stop stop-color="#641BB4"/>
<stop offset="1" stop-color="#B66A53"/>
</linearGradient>
</defs>
</svg>
