<svg width="100" height="149" viewBox="0 0 100 149" fill="none" xmlns="http://www.w3.org/2000/svg">
<path fill-rule="evenodd" clip-rule="evenodd" d="M25.4625 51.1088C24.7845 37.1987 35.4489 26.1757 48.4956 25.4586C62.3727 24.6941 73.542 35.5069 74.187 48.5453C74.8733 62.4265 64.1821 73.4475 51.1746 74.1687C37.2789 74.9395 26.0931 64.0978 25.4625 51.1088ZM52.5017 0H46.9376C46.1442 0.333843 44.3885 0.282324 43.3767 0.412151C42.2659 0.556404 41.1634 0.741868 40.1104 0.947943C37.9981 1.36422 36.0713 1.88767 34.1012 2.5368C15.7151 8.58307 2.24188 25.1557 0.263549 44.7823C-0.756526 54.878 1.31041 62.2905 4.29645 70.7767C10.5282 88.4828 23.0596 109.418 33.7653 125.02C34.7998 126.526 35.859 127.987 36.8729 129.512C39.3046 133.168 43.7599 139.181 46.4637 142.718L49.8268 147L50.3111 146.454C56.481 138.701 63.5494 128.628 69.0269 120.313C75.6048 110.331 80.3116 102.574 86.09 91.6584C89.4449 85.3174 92.9894 77.8142 95.4211 70.5974C98.5411 61.3343 100.443 54.8265 99.3571 44.4897C98.2979 34.3899 93.8054 24.4612 87.9508 17.7679C86.9575 16.6324 84.4063 13.7927 83.2729 12.8839C82.8999 12.585 82.6815 12.3398 82.2982 12.0204C75.4173 6.34097 68.3551 2.63985 59.2362 0.892324L52.5017 0Z" fill="url(#paint0_linear_528_1907)"/>
<path fill-rule="evenodd" clip-rule="evenodd" d="M39.3579 83.1329C38.4553 82.4446 37.1075 81.5956 35.632 80.5405C34.1565 79.4833 32.5533 78.218 31.1849 76.7673C29.8145 75.3144 28.679 73.6761 27.7867 72.0728C26.8944 70.4696 26.2453 68.8993 25.8599 68.04C25.4746 67.1786 25.353 67.0302 24.9635 66.8509C24.5761 66.6716 23.9207 66.4635 23.0573 65.6927C22.1938 64.9241 21.1222 63.5908 20.3062 62.107C19.4901 60.6233 18.9296 58.9829 18.6164 57.2746C18.3031 55.5641 18.2392 53.7816 18.8101 52.3576C19.3809 50.9316 20.5906 49.8661 21.4787 49.0171C22.369 48.166 22.9378 47.5334 23.3149 46.6802C23.692 45.825 23.8754 44.7513 23.8527 43.857C23.8321 42.9647 23.6034 42.2537 23.2222 41.6252C22.8409 40.9966 22.3051 40.4505 21.7075 39.4964C21.1078 38.5402 20.4443 37.176 20.1042 35.9086C19.7663 34.6392 19.7539 33.4666 20.03 32.4548C20.3062 31.4409 20.8729 30.5878 21.6848 29.8933C22.4968 29.1988 23.5539 28.6651 24.7162 28.1705C25.8785 27.6759 27.1438 27.2225 28.0938 26.7877C29.0438 26.3508 29.6785 25.9304 30.8057 25.4029C31.9309 24.8753 33.5486 24.2406 34.9602 23.4184C36.3718 22.5961 37.5753 21.5843 38.8551 20.8466C40.1348 20.1088 41.4928 19.6451 42.7478 19.2927C44.0049 18.9403 45.1589 18.6992 46.7375 18.4478C48.316 18.1944 50.317 17.9285 52.1243 17.9512C53.9316 17.9739 55.5431 18.283 57.2391 18.5303C58.9351 18.7796 60.7176 18.9671 63.0875 19.8904C65.4553 20.8115 68.4125 22.4663 70.5042 23.7048C72.5938 24.9413 73.8199 25.7635 74.8462 26.4951C75.8725 27.2246 76.7009 27.8634 77.2264 28.6053C77.7539 29.3472 77.9806 30.1921 78.1949 30.9278C78.4092 31.6614 78.6112 32.2838 78.6153 33.1513C78.6174 34.0189 78.4195 35.1297 78.2361 36.4197C78.0527 37.7118 77.8837 39.1832 77.5581 40.2383C77.2325 41.2954 76.7503 41.9363 76.4453 42.7936C76.1403 43.6488 76.0105 44.7204 75.9569 47.1604C75.9013 49.6003 75.9219 53.4086 75.8663 56.5677C75.8086 59.7248 75.6726 62.2348 75.4582 64.1864C75.246 66.1399 74.9533 67.5371 74.2815 69.2661C73.6077 70.993 72.5526 73.0517 71.2934 74.8961C70.0343 76.7405 68.5712 78.3705 67.1843 79.6832C65.7953 80.9959 64.4847 81.9913 62.8876 82.8712C61.2885 83.7512 59.4049 84.5178 57.5214 85.0227C55.6379 85.5296 53.7564 85.779 51.6318 85.7954C49.5071 85.8119 47.1414 85.5997 45.3588 85.408C43.5763 85.2164 42.3769 85.0474 41.5464 84.6991C40.718 84.3508 40.2605 83.8212 39.3579 83.1329Z" fill="#2B2A29"/>
<path fill-rule="evenodd" clip-rule="evenodd" d="M36.9902 40.735C37.2869 40.4939 38.2307 40.1168 39.8793 39.5748C41.5259 39.0308 43.8772 38.3219 46.0616 37.92C48.244 37.5202 50.2594 37.4275 52.0996 37.3822C53.9378 37.3348 55.6009 37.3327 57.097 37.3492C58.591 37.3657 59.9161 37.3987 61.3133 37.4708C62.7105 37.5409 64.1798 37.648 65.6038 38.0128C67.0277 38.3775 68.4085 38.9999 69.3214 39.4697C70.2364 39.9396 70.6856 40.2569 70.5908 40.5207C70.496 40.7845 69.8592 40.9926 68.6516 40.9947C67.442 40.9988 65.6656 40.7927 63.5348 40.6629C61.406 40.5331 58.9228 40.4795 56.9197 40.4486C54.9167 40.4156 53.3958 40.4074 51.7493 40.4053C50.1048 40.4032 48.3367 40.4074 46.7004 40.4836C45.0621 40.5578 43.5578 40.7062 42.3461 40.836C41.1323 40.9658 40.2111 41.0771 39.4342 41.1327C38.6573 41.1884 38.0267 41.1863 37.5342 41.1327C37.0437 41.0792 36.6955 40.9761 36.9902 40.735Z" fill="white"/>
<path fill-rule="evenodd" clip-rule="evenodd" d="M31.2092 50.1919C31.3473 49.1987 31.5184 47.8447 31.9078 47.1008C32.2953 46.3548 32.9011 46.2188 33.4039 46.1714C33.9047 46.1261 34.3045 46.1693 35.2401 46.3342C36.1757 46.4991 37.6491 46.7834 39.0051 47.0225C40.3611 47.2595 41.5996 47.4511 43.343 47.5624C45.0843 47.6758 47.3326 47.7108 49.855 47.7211C52.3794 47.7335 55.18 47.7231 57.2984 47.6799C59.4169 47.6386 60.8553 47.5665 62.3493 47.3955C63.8434 47.2244 65.3972 46.9566 66.6295 46.7443C67.8619 46.532 68.7727 46.3754 69.3765 46.2724C69.9783 46.1673 70.2709 46.1178 70.6562 46.1467C71.0437 46.1776 71.5218 46.2888 71.8247 46.8514C72.1276 47.412 72.2554 48.4259 72.3316 49.8704C72.4079 51.3171 72.4326 53.1965 72.3935 54.8987C72.3523 56.6009 72.2472 58.1279 72.1524 59.5416C72.0596 60.9573 71.9772 62.2618 71.87 63.4158C71.7649 64.5698 71.6372 65.5734 71.3136 66.7336C70.9901 67.8938 70.4708 69.2086 69.7804 70.5254C69.088 71.8422 68.2246 73.1591 67.3508 74.3358C66.475 75.5125 65.5909 76.549 64.4863 77.4949C63.3818 78.4408 62.0567 79.296 61.0243 79.8833C59.9898 80.4706 59.2458 80.7921 58.2855 81.0848C57.3211 81.3794 56.1403 81.6453 54.943 81.8802C53.7457 82.1172 52.5319 82.3253 51.2048 82.3274C49.8776 82.3294 48.4372 82.1254 47.0235 81.8369C45.6098 81.5463 44.2209 81.1692 42.8175 80.5902C41.4141 80.0111 39.9963 79.2301 38.698 78.3893C37.3997 77.5485 36.2231 76.6459 35.2071 75.599C34.1911 74.5542 33.338 73.3672 32.5899 72.2977C31.844 71.2282 31.2051 70.2761 30.6837 69.39C30.1644 68.5018 29.7605 67.6775 29.3958 66.7975C29.031 65.9176 28.7054 64.982 28.5014 64.4482C28.2994 63.9145 28.2211 63.7868 27.7575 63.6672C27.2938 63.5477 26.4448 63.4385 25.6699 63.1026C24.8951 62.7646 24.1965 62.202 23.7493 61.59C23.3021 60.9779 23.1063 60.3164 22.925 59.6261C22.7457 58.9357 22.5829 58.2145 22.5046 57.2706C22.4263 56.3247 22.4366 55.1542 22.6138 54.3135C22.789 53.4747 23.1311 52.9616 23.4464 52.6319C23.7596 52.3021 24.046 52.1517 24.419 52.0425C24.792 51.9312 25.2557 51.8611 25.6205 51.8756C25.9873 51.8879 26.2572 51.9848 26.5128 52.1393C26.7683 52.2939 27.0094 52.5082 27.2629 52.7823C27.5143 53.0584 27.7781 53.3964 28.0996 53.619C28.421 53.8415 28.8023 53.9487 29.2021 53.8848C29.6019 53.8209 30.0181 53.5839 30.2984 53.3181C30.5787 53.0502 30.7208 52.7555 30.8445 52.2898C30.9681 51.824 31.0712 51.1873 31.2092 50.1919Z" fill="#FEFEFE"/>
<path d="M44.1897 57.5692C45.5247 57.5692 46.607 56.5331 46.607 55.255C46.607 53.9769 45.5247 52.9408 44.1897 52.9408C42.8547 52.9408 41.7725 53.9769 41.7725 55.255C41.7725 56.5331 42.8547 57.5692 44.1897 57.5692Z" fill="#2B2A29"/>
<path d="M62.2268 57.5364C63.5619 57.5364 64.6441 56.5003 64.6441 55.2222C64.6441 53.9441 63.5619 52.908 62.2268 52.908C60.8918 52.908 59.8096 53.9441 59.8096 55.2222C59.8096 56.5003 60.8918 57.5364 62.2268 57.5364Z" fill="#2B2A29"/>
<path fill-rule="evenodd" clip-rule="evenodd" d="M45.6047 65.6166C45.8706 65.7279 46.1879 65.9237 46.4682 66.1607C46.7464 66.3997 46.9895 66.682 47.175 66.8964C47.3625 67.1127 47.4944 67.2632 47.6346 67.4239C47.7747 67.5867 47.921 67.7598 48.2445 67.9247C48.5681 68.0895 49.0647 68.2462 49.6582 68.3781C50.2517 68.5099 50.94 68.6191 51.5974 68.6975C52.2568 68.7758 52.8854 68.8232 53.518 68.8438C54.1507 68.8644 54.7895 68.8582 55.3748 68.8273C55.958 68.7964 56.4855 68.7428 56.9306 68.6686C57.3737 68.5944 57.7323 68.4996 58.0455 68.3925C58.3587 68.2874 58.6266 68.1699 58.9502 67.9886C59.2737 67.8093 59.6529 67.5682 60.0383 67.2735C60.4236 66.9788 60.8172 66.6326 61.182 66.3668C61.5467 66.103 61.8826 65.9196 62.1341 65.8145C62.3875 65.7094 62.5544 65.6846 62.744 65.6908C62.9316 65.6991 63.1376 65.7403 63.3211 65.8062C63.5045 65.8742 63.6611 65.969 63.7682 66.1071C63.8754 66.2452 63.929 66.4286 63.964 66.68C64.0011 66.9314 64.0196 67.2529 63.9805 67.5476C63.9455 67.8402 63.8527 68.1081 63.7476 68.3183C63.6425 68.5285 63.5251 68.681 63.352 68.8747C63.1768 69.0705 62.946 69.3054 62.7049 69.5444C62.4617 69.7814 62.2082 70.0225 61.8806 70.2781C61.5529 70.5315 61.1531 70.8015 60.7018 71.0508C60.2485 71.3023 59.7436 71.5331 59.2469 71.7185C58.7524 71.9019 58.2639 72.04 57.6725 72.1698C57.0811 72.2997 56.3845 72.4254 55.791 72.5037C55.1996 72.5841 54.7133 72.6191 54.2475 72.6294C53.7797 72.6376 53.3346 72.6191 52.8771 72.5799C52.4176 72.5428 51.9457 72.4851 51.2924 72.378C50.6412 72.2688 49.8066 72.1101 48.9699 71.9123C48.1312 71.7165 47.2863 71.4816 46.5939 71.2425C45.8994 71.0014 45.3554 70.7582 44.902 70.4697C44.4507 70.1833 44.0901 69.8515 43.818 69.4661C43.546 69.0808 43.3626 68.6439 43.274 68.2462C43.1875 67.8484 43.1978 67.4899 43.2926 67.1313C43.3853 66.7707 43.5646 66.41 43.75 66.1545C43.9355 65.899 44.1313 65.7485 44.327 65.6475C44.5208 65.5486 44.7186 65.4971 44.9226 65.4868C45.1266 65.4744 45.3409 65.5054 45.6047 65.6166Z" fill="#2B2A29"/>
<path fill-rule="evenodd" clip-rule="evenodd" d="M46.0287 141.551C42.2308 136.101 34.6369 125.201 30.6617 119.81C26.6865 114.419 26.33 114.537 27.1522 113.358C27.9745 112.179 29.9734 109.704 31.5622 107.992C33.149 106.279 34.3236 105.329 35.7971 104.443C37.2685 103.555 39.0407 102.733 40.8542 102.076C42.6677 101.416 44.5244 100.924 46.2101 100.627C47.8958 100.328 49.4105 100.227 51.092 100.293C52.7715 100.359 54.6221 100.592 56.4686 100.864C58.3129 101.136 60.1573 101.447 61.9893 102.047C63.8213 102.644 65.643 103.53 67.7512 105.165C69.8594 106.801 72.256 109.187 73.3235 110.589C74.391 111.99 74.1292 112.406 74.0427 112.699C73.9561 112.989 74.0447 113.156 70.663 118.061C67.2793 122.967 60.4273 132.61 56.3758 138.223C52.3244 143.835 51.0755 145.417 50.4511 146.209C49.8267 147 49.8267 147 46.0287 141.551Z" fill="#2B2A29" stroke="#2B2A29" stroke-width="2.90277" stroke-miterlimit="22.9256"/>
<path fill-rule="evenodd" clip-rule="evenodd" d="M42.7164 123.213C41.5418 122.199 39.7221 120.583 38.2837 119.361C36.8473 118.137 35.7922 117.309 35.7531 116.223C35.7139 115.135 36.6887 113.789 38.3682 112.678C40.0456 111.567 42.4299 110.694 44.705 110.086C46.9801 109.476 49.146 109.134 50.8502 109.068C52.5544 109.002 53.795 109.216 55.2417 109.698C56.6883 110.181 58.3431 110.933 59.7073 111.576C61.0736 112.219 62.1514 112.75 62.7675 113.294C63.3817 113.838 63.5321 114.393 63.9319 114.928C64.3317 115.462 64.9787 115.977 64.7768 116.653C64.5748 117.327 63.5218 118.164 62.4893 119.001C61.459 119.837 60.4471 120.676 59.5198 121.44C58.5945 122.205 57.7537 122.893 57.3148 123.623C56.8779 124.354 56.8429 125.125 56.2947 125.041C55.7445 124.958 54.6853 124.021 53.6466 123.384C52.608 122.747 51.5921 122.411 50.6544 122.292C49.7188 122.172 48.8616 122.269 48.1279 122.45C47.3943 122.632 46.7843 122.899 46.2733 123.347C45.7622 123.794 45.35 124.42 44.8822 124.527C44.4124 124.637 43.889 124.225 42.7164 123.213Z" fill="white" stroke="#2B2A29" stroke-width="2.90277" stroke-miterlimit="22.9256"/>
<defs>
<linearGradient id="paint0_linear_528_1907" x1="49.8324" y1="0" x2="49.8324" y2="147" gradientUnits="userSpaceOnUse">
<stop stop-color="#641BB4"/>
<stop offset="1" stop-color="#B66A53"/>
</linearGradient>
</defs>
</svg>
