<svg width="36" height="36" viewBox="0 0 36 36" fill="none" xmlns="http://www.w3.org/2000/svg">
<path d="M34.875 9C34.875 8.55 34.65 8.2125 34.3125 7.9875L26.4375 3.4875C26.2125 3.375 26.1 3.375 25.875 3.375C25.65 3.375 25.5375 3.375 25.3125 3.4875L18 7.65L10.6875 3.4875C10.4625 3.375 10.35 3.375 10.125 3.375C9.9 3.375 9.7875 3.375 9.5625 3.4875L1.6875 7.9875C1.35 8.2125 1.125 8.55 1.125 9V31.5C1.125 32.175 1.575 32.625 2.25 32.625C2.475 32.625 2.5875 32.5125 2.8125 32.5125L10.125 28.35L17.4375 32.5125C17.6625 32.625 17.775 32.625 18 32.625C18.225 32.625 18.3375 32.625 18.5625 32.5125L25.875 28.35L33.1875 32.5125C33.3 32.625 33.525 32.625 33.75 32.625C34.425 32.625 34.875 32.175 34.875 31.5V9ZM3.375 9.675L9 6.4125V26.325L3.375 29.5875V9.675ZM16.875 29.5875L11.25 26.325V6.4125L16.875 9.675V29.5875ZM24.75 26.325L19.125 29.5875V9.675L24.75 6.4125V26.325ZM27 26.325V6.4125L32.625 9.675V29.5875L27 26.325Z" fill="black"/>
</svg>
