<svg width="218" height="121" viewBox="0 0 218 121" fill="none" xmlns="http://www.w3.org/2000/svg">
<path fill-rule="evenodd" clip-rule="evenodd" d="M20.7014 41.5523C20.1502 30.2431 28.8205 21.2813 39.4276 20.6982C50.71 20.0767 59.7908 28.8676 60.3152 39.4681C60.8731 50.7537 52.181 59.7139 41.6057 60.3003C30.3083 60.9269 21.2141 52.1125 20.7014 41.5523ZM42.6847 0H38.161C37.516 0.271419 36.0885 0.229534 35.2659 0.335085C34.3628 0.452365 33.4665 0.60315 32.6103 0.770692C30.893 1.10913 29.3265 1.5347 27.7248 2.06246C12.7766 6.97816 1.82268 20.452 0.214269 36.4087C-0.615067 44.6166 1.06538 50.6432 3.49308 57.5426C8.55957 71.9378 18.7478 88.9585 27.4517 101.643C28.2927 102.868 29.1539 104.056 29.9782 105.296C31.9552 108.268 35.5775 113.157 37.7757 116.032L40.51 119.513L40.9037 119.069C45.9199 112.766 51.6666 104.577 56.1199 97.8165C61.4679 89.7007 65.2946 83.3944 69.9925 74.5197C72.7201 69.3644 75.6018 63.2641 77.5788 57.3968C80.1154 49.8658 81.6618 44.5747 80.7789 36.1708C79.9177 27.9595 76.2653 19.8873 71.5054 14.4455C70.6978 13.5224 68.6236 11.2136 67.7021 10.4748C67.3989 10.2318 67.2213 10.0325 66.9097 9.77278C61.3154 5.1553 55.5737 2.14624 48.16 0.725473L42.6847 0Z" fill="white"/>
<path fill-rule="evenodd" clip-rule="evenodd" d="M31.9988 67.5884C31.265 67.0288 30.1692 66.3386 28.9696 65.4808C27.77 64.6213 26.4665 63.5925 25.3541 62.413C24.2399 61.2319 23.3167 59.8999 22.5913 58.5964C21.8658 57.2929 21.338 56.0163 21.0247 55.3176C20.7114 54.6173 20.6126 54.4966 20.2959 54.3509C19.981 54.2051 19.4482 54.0359 18.7462 53.4093C18.0442 52.7844 17.1729 51.7004 16.5095 50.494C15.846 49.2877 15.3903 47.9541 15.1356 46.5652C14.881 45.1746 14.829 43.7253 15.2931 42.5676C15.7572 41.4082 16.7407 40.542 17.4628 39.8517C18.1866 39.1598 18.649 38.6454 18.9556 37.9518C19.2622 37.2565 19.4113 36.3836 19.3929 35.6565C19.3761 34.931 19.1902 34.353 18.8802 33.842C18.5702 33.331 18.1346 32.887 17.6488 32.1113C17.1612 31.3339 16.6217 30.2247 16.3453 29.1943C16.0705 28.1623 16.0605 27.209 16.285 26.3863C16.5095 25.562 16.9702 24.8684 17.6303 24.3038C18.2904 23.7392 19.1499 23.3052 20.0949 22.9031C21.0398 22.501 22.0685 22.1324 22.8409 21.7789C23.6133 21.4237 24.1293 21.0819 25.0458 20.653C25.9606 20.2241 27.2758 19.7081 28.4234 19.0396C29.5711 18.3711 30.5495 17.5485 31.59 16.9487C32.6304 16.3488 33.7345 15.9719 34.7549 15.6854C35.7769 15.3989 36.7151 15.2029 37.9985 14.9985C39.2819 14.7924 40.9087 14.5762 42.3781 14.5947C43.8474 14.6131 45.1576 14.8644 46.5365 15.0655C47.9154 15.2682 49.3646 15.4207 51.2913 16.1713C53.2164 16.9202 55.6206 18.2655 57.3212 19.2725C59.0201 20.2777 60.017 20.9462 60.8513 21.541C61.6857 22.1341 62.3592 22.6535 62.7864 23.2566C63.2154 23.8598 63.3997 24.5467 63.5739 25.1448C63.7481 25.7413 63.9123 26.2473 63.9157 26.9526C63.9174 27.658 63.7565 28.561 63.6074 29.6098C63.4583 30.6603 63.3209 31.8566 63.0562 32.7144C62.7915 33.5739 62.3994 34.095 62.1515 34.792C61.9035 35.4873 61.7979 36.3585 61.7544 38.3422C61.7091 40.3259 61.7259 43.4221 61.6807 45.9905C61.6337 48.5573 61.5232 50.5979 61.3489 52.1846C61.1764 53.7729 60.9384 54.9088 60.3923 56.3145C59.8444 57.7185 58.9866 59.3923 57.9629 60.8918C56.9392 62.3913 55.7497 63.7165 54.6221 64.7838C53.4929 65.851 52.4273 66.6602 51.1288 67.3757C49.8287 68.0911 48.2974 68.7143 46.766 69.1248C45.2347 69.537 43.705 69.7397 41.9776 69.7531C40.2503 69.7665 38.3269 69.5939 36.8776 69.4381C35.4284 69.2823 34.4533 69.1449 33.7781 68.8618C33.1046 68.5786 32.7326 68.148 31.9988 67.5884Z" fill="#2B2A29"/>
<path fill-rule="evenodd" clip-rule="evenodd" d="M30.0737 33.1182C30.3149 32.9222 31.0823 32.6156 32.4226 32.1749C33.7613 31.7326 35.6729 31.1563 37.4489 30.8295C39.2232 30.5045 40.8617 30.4291 42.3579 30.3923C43.8524 30.3537 45.2044 30.352 46.4208 30.3654C47.6355 30.3789 48.7128 30.4057 49.8487 30.4643C50.9847 30.5213 52.1792 30.6084 53.337 30.9049C54.4947 31.2015 55.6172 31.7075 56.3594 32.0895C57.1033 32.4715 57.4686 32.7295 57.3915 32.9439C57.3144 33.1584 56.7967 33.3276 55.8149 33.3293C54.8314 33.3326 53.3872 33.1651 51.6548 33.0595C49.9241 32.954 47.9052 32.9104 46.2767 32.8853C44.6482 32.8585 43.4117 32.8518 42.0731 32.8501C40.7361 32.8484 39.2986 32.8518 37.9683 32.9138C36.6363 32.9741 35.4132 33.0947 34.4281 33.2003C33.4413 33.3058 32.6923 33.3963 32.0607 33.4415C31.4291 33.4868 30.9164 33.4851 30.516 33.4415C30.1172 33.398 29.8341 33.3142 30.0737 33.1182Z" fill="#641BB4"/>
<path fill-rule="evenodd" clip-rule="evenodd" d="M25.3725 40.8067C25.4847 39.9991 25.6238 38.8984 25.9404 38.2936C26.2554 37.6871 26.748 37.5765 27.1568 37.5379C27.5639 37.5011 27.8889 37.5363 28.6496 37.6703C29.4102 37.8043 30.6082 38.0355 31.7106 38.2299C32.813 38.4226 33.82 38.5784 35.2374 38.6688C36.6531 38.761 38.481 38.7895 40.5317 38.7979C42.5841 38.8079 44.861 38.7995 46.5834 38.7643C48.3057 38.7308 49.4751 38.6722 50.6898 38.5331C51.9045 38.3941 53.1678 38.1763 54.1697 38.0037C55.1716 37.8311 55.9121 37.7038 56.403 37.62C56.8923 37.5346 57.1302 37.4944 57.4435 37.5178C57.7585 37.543 58.1472 37.6334 58.3934 38.0908C58.6397 38.5465 58.7436 39.3708 58.8056 40.5453C58.8676 41.7215 58.8877 43.2495 58.8559 44.6334C58.8224 46.0173 58.7369 47.2588 58.6598 48.4081C58.5844 49.5591 58.5174 50.6197 58.4303 51.5579C58.3449 52.4961 58.241 53.3121 57.9779 54.2554C57.7149 55.1986 57.2927 56.2675 56.7314 57.3381C56.1685 58.4087 55.4665 59.4793 54.7561 60.436C54.044 61.3927 53.3253 62.2354 52.4272 63.0044C51.5292 63.7735 50.4519 64.4687 49.6125 64.9462C48.7715 65.4237 48.1666 65.6851 47.3859 65.923C46.6018 66.1626 45.6418 66.3787 44.6683 66.5697C43.6949 66.7624 42.7081 66.9316 41.6291 66.9333C40.5501 66.935 39.379 66.7691 38.2297 66.5345C37.0803 66.2983 35.9511 65.9917 34.8101 65.5209C33.6692 65.0501 32.5165 64.4151 31.461 63.7316C30.4054 63.048 29.4488 62.3141 28.6228 61.463C27.7968 60.6136 27.1032 59.6486 26.495 58.779C25.8885 57.9095 25.3691 57.1354 24.9452 56.415C24.523 55.6929 24.1946 55.0227 23.8981 54.3073C23.6015 53.5919 23.3368 52.8312 23.1709 52.3973C23.0067 51.9634 22.9431 51.8595 22.5661 51.7623C22.1891 51.6651 21.4989 51.5763 20.8689 51.3033C20.2389 51.0285 19.671 50.5711 19.3074 50.0735C18.9438 49.5759 18.7847 49.0381 18.6372 48.4768C18.4915 47.9155 18.3591 47.3291 18.2954 46.5618C18.2318 45.7928 18.2402 44.8411 18.3842 44.1576C18.5267 43.4757 18.8048 43.0585 19.0611 42.7904C19.3158 42.5223 19.5487 42.4 19.8519 42.3112C20.1552 42.2208 20.5321 42.1638 20.8287 42.1755C21.1269 42.1856 21.3464 42.2643 21.5541 42.39C21.7619 42.5156 21.9579 42.6899 22.164 42.9127C22.3684 43.1372 22.5829 43.412 22.8442 43.5929C23.1056 43.7739 23.4156 43.861 23.7406 43.809C24.0656 43.7571 24.4041 43.5644 24.6319 43.3483C24.8598 43.1305 24.9754 42.8909 25.0759 42.5123C25.1764 42.1336 25.2602 41.6159 25.3725 40.8067Z" fill="#FEFEFE"/>
<path d="M35.926 46.8047C37.0114 46.8047 37.8912 45.9623 37.8912 44.9232C37.8912 43.8841 37.0114 43.0417 35.926 43.0417C34.8406 43.0417 33.9607 43.8841 33.9607 44.9232C33.9607 45.9623 34.8406 46.8047 35.926 46.8047Z" fill="#2B2A29"/>
<path d="M50.591 46.778C51.6764 46.778 52.5563 45.9356 52.5563 44.8965C52.5563 43.8573 51.6764 43.015 50.591 43.015C49.5056 43.015 48.6257 43.8573 48.6257 44.8965C48.6257 45.9356 49.5056 46.778 50.591 46.778Z" fill="#2B2A29"/>
<path fill-rule="evenodd" clip-rule="evenodd" d="M37.077 53.3473C37.2932 53.4377 37.5512 53.5969 37.779 53.7896C38.0052 53.9839 38.2029 54.2134 38.3537 54.3877C38.5062 54.5636 38.6134 54.6859 38.7273 54.8166C38.8413 54.949 38.9602 55.0897 39.2233 55.2237C39.4863 55.3578 39.8901 55.4851 40.3726 55.5923C40.8551 55.6996 41.4147 55.7883 41.9492 55.852C42.4853 55.9157 42.9963 55.9542 43.5107 55.971C44.025 55.9877 44.5444 55.9827 45.0202 55.9576C45.4944 55.9324 45.9233 55.8889 46.2852 55.8286C46.6454 55.7683 46.9369 55.6912 47.1916 55.604C47.4463 55.5186 47.6641 55.4231 47.9271 55.2757C48.1901 55.1299 48.4984 54.9339 48.8117 54.6943C49.125 54.4547 49.445 54.1732 49.7416 53.9571C50.0381 53.7427 50.3112 53.5935 50.5156 53.5081C50.7217 53.4226 50.8574 53.4025 51.0116 53.4076C51.164 53.4143 51.3316 53.4478 51.4807 53.5014C51.6298 53.5567 51.7571 53.6337 51.8443 53.746C51.9314 53.8583 51.9749 54.0074 52.0034 54.2118C52.0336 54.4162 52.0487 54.6775 52.0168 54.9171C51.9883 55.155 51.9129 55.3728 51.8275 55.5437C51.742 55.7146 51.6466 55.8386 51.5058 55.9961C51.3634 56.1553 51.1758 56.3463 50.9797 56.5406C50.782 56.7333 50.576 56.9293 50.3096 57.1371C50.0432 57.3431 49.7181 57.5626 49.3512 57.7654C48.9826 57.9698 48.5721 58.1574 48.1684 58.3082C47.7663 58.4573 47.3692 58.5696 46.8883 58.6751C46.4075 58.7807 45.8412 58.8829 45.3587 58.9465C44.8778 59.0119 44.4824 59.0404 44.1038 59.0487C43.7235 59.0554 43.3616 59.0404 42.9896 59.0085C42.616 58.9784 42.2323 58.9315 41.7012 58.8443C41.1718 58.7555 40.4932 58.6265 39.813 58.4657C39.1311 58.3065 38.4442 58.1155 37.8812 57.9212C37.3166 57.7251 36.8743 57.5274 36.5057 57.2929C36.1388 57.06 35.8456 56.7903 35.6244 56.477C35.4033 56.1637 35.2542 55.8085 35.1821 55.4851C35.1118 55.1617 35.1201 54.8702 35.1972 54.5787C35.2726 54.2855 35.4184 53.9923 35.5692 53.7845C35.7199 53.5768 35.8791 53.4545 36.0383 53.3724C36.1958 53.292 36.3566 53.2501 36.5225 53.2417C36.6883 53.2316 36.8626 53.2568 37.077 53.3473Z" fill="#2B2A29"/>
<path fill-rule="evenodd" clip-rule="evenodd" d="M37.4221 115.083C34.3343 110.652 28.1604 101.791 24.9285 97.4076C21.6966 93.0247 21.4067 93.1202 22.0752 92.1619C22.7437 91.2036 24.3689 89.1914 25.6606 87.7991C26.9507 86.4068 27.9057 85.6344 29.1036 84.914C30.2999 84.1919 31.7408 83.5234 33.2151 82.9889C34.6895 82.4528 36.1991 82.0524 37.5696 81.8111C38.9401 81.5682 40.1715 81.4861 41.5387 81.5397C42.9041 81.5933 44.4087 81.7826 45.9098 82.0038C47.4094 82.2249 48.9089 82.4779 50.3983 82.9655C51.8878 83.4513 53.3688 84.1718 55.0828 85.5004C56.7968 86.8307 58.7453 88.7708 59.6132 89.9101C60.481 91.0494 60.2683 91.3878 60.1979 91.6257C60.1275 91.862 60.1996 91.9977 57.4502 95.9852C54.6991 99.9744 49.1283 107.814 45.8344 112.378C42.5406 116.94 41.5253 118.227 41.0176 118.87C40.5099 119.513 40.5099 119.513 37.4221 115.083Z" fill="#2B2A29" stroke="#2B2A29" stroke-width="2.36" stroke-miterlimit="22.9256"/>
<path fill-rule="evenodd" clip-rule="evenodd" d="M34.7297 100.174C33.7747 99.3495 32.2953 98.036 31.1258 97.0425C29.9581 96.0473 29.1003 95.3738 29.0684 94.4908C29.0366 93.6062 29.8291 92.5121 31.1945 91.6091C32.5583 90.706 34.4968 89.9956 36.3465 89.5014C38.1962 89.0055 39.957 88.7273 41.3426 88.6737C42.7282 88.6201 43.7368 88.7944 44.9129 89.1864C46.0891 89.5785 47.4345 90.19 48.5436 90.7127C49.6544 91.2355 50.5306 91.6677 51.0316 92.11C51.5309 92.5523 51.6532 93.003 51.9782 93.4386C52.3033 93.8726 52.8293 94.2914 52.6651 94.841C52.5009 95.3888 51.6448 96.0691 50.8054 96.7493C49.9677 97.4295 49.1451 98.1114 48.3911 98.733C47.6389 99.3546 46.9553 99.9142 46.5984 100.507C46.2432 101.102 46.2148 101.729 45.7691 101.66C45.3217 101.593 44.4606 100.831 43.6162 100.313C42.7718 99.7952 41.9458 99.5221 41.1834 99.4249C40.4228 99.3278 39.7258 99.4065 39.1294 99.554C38.5329 99.7014 38.037 99.9192 37.6215 100.283C37.206 100.646 36.8709 101.156 36.4906 101.243C36.1086 101.332 35.683 100.996 34.7297 100.174Z" fill="#641BB4" stroke="#2B2A29" stroke-width="2.36" stroke-miterlimit="22.9256"/>
<path d="M95.7981 48.84V28.1799H104.647C106.872 28.1799 108.486 28.3678 109.49 28.7436C110.503 29.1101 111.313 29.7677 111.919 30.7166C112.525 31.6655 112.828 32.7507 112.828 33.9721C112.828 35.5223 112.368 36.8047 111.45 37.8194C110.531 38.8247 109.158 39.4589 107.331 39.7219C108.24 40.2481 108.988 40.8259 109.575 41.4553C110.172 42.0848 110.972 43.2028 111.975 44.8094L114.518 48.84H109.49L106.45 44.3444C105.371 42.7378 104.632 41.7278 104.235 41.3144C103.837 40.8916 103.416 40.6051 102.971 40.4547C102.526 40.295 101.82 40.2152 100.854 40.2152H100.002V48.84H95.7981ZM100.002 36.9175H103.113C105.13 36.9175 106.389 36.8329 106.891 36.6638C107.393 36.4947 107.785 36.2034 108.07 35.79C108.354 35.3766 108.496 34.8599 108.496 34.2398C108.496 33.5446 108.306 32.9856 107.928 32.5628C107.558 32.1306 107.033 31.8581 106.351 31.7454C106.01 31.6984 104.987 31.6749 103.283 31.6749H100.002V36.9175Z" fill="white"/>
<path d="M116.776 31.8441V28.1799H120.767V31.8441H116.776ZM116.776 48.84V33.8734H120.767V48.84H116.776Z" fill="white"/>
<path d="M138.705 48.84H134.998V46.6415C134.383 47.4964 133.654 48.1353 132.811 48.5581C131.978 48.9715 131.135 49.1782 130.283 49.1782C128.55 49.1782 127.064 48.4876 125.823 47.1065C124.592 45.7161 123.977 43.7806 123.977 41.3003C123.977 38.7636 124.578 36.8376 125.781 35.5223C126.983 34.1975 128.503 33.5352 130.34 33.5352C132.025 33.5352 133.483 34.2304 134.714 35.6209V28.1799H138.705V48.84ZM128.053 41.0325C128.053 42.6297 128.276 43.7853 128.721 44.4994C129.365 45.5328 130.264 46.0496 131.419 46.0496C132.338 46.0496 133.119 45.6644 133.763 44.894C134.407 44.1142 134.729 42.9539 134.729 41.4131C134.729 39.6937 134.416 38.4583 133.791 37.7067C133.166 36.9456 132.366 36.5651 131.391 36.5651C130.444 36.5651 129.649 36.9409 129.005 37.6926C128.37 38.4348 128.053 39.5481 128.053 41.0325Z" fill="white"/>
<path d="M151.389 44.0766L155.366 44.739C154.854 46.1858 154.045 47.2897 152.937 48.0508C151.838 48.8024 150.461 49.1782 148.804 49.1782C146.181 49.1782 144.24 48.3279 142.981 46.6274C141.986 45.2651 141.489 43.5458 141.489 41.4694C141.489 38.9891 142.143 37.049 143.449 35.6491C144.756 34.2398 146.408 33.5352 148.406 33.5352C150.65 33.5352 152.421 34.2727 153.718 35.7478C155.015 37.2134 155.635 39.4636 155.579 42.4982H145.58C145.608 43.6726 145.93 44.5886 146.546 45.2463C147.161 45.8946 147.928 46.2187 148.846 46.2187C149.471 46.2187 149.997 46.0496 150.423 45.7114C150.849 45.3731 151.171 44.8282 151.389 44.0766ZM151.616 40.0742C151.588 38.928 151.289 38.059 150.721 37.4671C150.153 36.8658 149.462 36.5651 148.648 36.5651C147.776 36.5651 147.057 36.8799 146.489 37.5094C145.921 38.1388 145.641 38.9938 145.651 40.0742H151.616Z" fill="white"/>
<path d="M161.828 48.84L156.857 28.1799H161.16L164.299 42.3714L168.106 28.1799H173.105L176.755 42.6109L179.951 28.1799H184.183L179.127 48.84H174.667L170.52 33.3943L166.387 48.84H161.828Z" fill="white"/>
<path d="M186.058 31.8441V28.1799H190.049V31.8441H186.058ZM186.058 48.84V33.8734H190.049V48.84H186.058Z" fill="white"/>
<path d="M201.071 33.8734V37.0302H198.344V43.0619C198.344 44.2833 198.368 44.9973 198.415 45.204C198.472 45.4013 198.59 45.5657 198.77 45.6973C198.959 45.8288 199.187 45.8946 199.452 45.8946C199.821 45.8946 200.356 45.7677 201.057 45.5141L201.398 48.5863C200.47 48.9809 199.419 49.1782 198.244 49.1782C197.525 49.1782 196.876 49.0607 196.299 48.8259C195.721 48.5816 195.295 48.2715 195.02 47.8957C194.755 47.5105 194.571 46.9938 194.466 46.3455C194.381 45.8852 194.339 44.955 194.339 43.5552V37.0302H192.506V33.8734H194.339V30.8998L198.344 28.5886V33.8734H201.071Z" fill="white"/>
<path d="M207.817 28.1799V35.7759C209.105 34.2821 210.644 33.5352 212.433 33.5352C213.352 33.5352 214.18 33.7043 214.919 34.0425C215.657 34.3808 216.211 34.8129 216.581 35.3391C216.959 35.8652 217.215 36.4477 217.348 37.0866C217.49 37.7254 217.561 38.7166 217.561 40.0601V48.84H213.57V40.9339C213.57 39.3649 213.494 38.369 213.342 37.9462C213.191 37.5234 212.921 37.1899 212.533 36.9456C212.154 36.692 211.676 36.5651 211.098 36.5651C210.435 36.5651 209.844 36.7249 209.323 37.0443C208.802 37.3637 208.419 37.8476 208.172 38.4958C207.936 39.1347 207.817 40.0836 207.817 41.3426V48.84H203.826V28.1799H207.817Z" fill="white"/>
<path d="M95.7697 52.9529H103.454C105.186 52.9529 106.507 53.0845 107.416 53.3475C108.638 53.7045 109.684 54.3387 110.555 55.25C111.426 56.1614 112.089 57.2794 112.543 58.6041C112.998 59.9195 113.225 61.5448 113.225 63.4802C113.225 65.1808 113.012 66.6464 112.586 67.8772C112.065 69.3804 111.322 70.5971 110.356 71.5272C109.627 72.2318 108.642 72.7815 107.402 73.1761C106.474 73.4673 105.234 73.6129 103.681 73.6129H95.7697V52.9529ZM99.9738 56.4479V70.132H103.113C104.287 70.132 105.134 70.0663 105.655 69.9347C106.337 69.7656 106.9 69.4791 107.345 69.0751C107.8 68.6711 108.169 68.0087 108.453 67.088C108.737 66.1579 108.879 64.8942 108.879 63.297C108.879 61.6998 108.737 60.4738 108.453 59.6188C108.169 58.7638 107.771 58.0968 107.26 57.6176C106.749 57.1385 106.1 56.8143 105.314 56.6452C104.727 56.5137 103.577 56.4479 101.863 56.4479H99.9738Z" fill="white"/>
<path d="M120.597 73.6129H116.606V58.6464H120.313V60.7744C120.947 59.7691 121.515 59.1068 122.017 58.7873C122.528 58.4679 123.106 58.3082 123.75 58.3082C124.659 58.3082 125.535 58.5571 126.377 59.0551L125.142 62.5078C124.469 62.0756 123.844 61.8596 123.267 61.8596C122.708 61.8596 122.235 62.0146 121.846 62.3246C121.458 62.6253 121.151 63.1749 120.923 63.9735C120.705 64.7721 120.597 66.4444 120.597 68.9905V73.6129Z" fill="white"/>
<path d="M128.11 56.617V52.9529H132.101V56.617H128.11ZM128.11 73.6129V58.6464H132.101V73.6129H128.11Z" fill="white"/>
<path d="M140.353 73.6129L134.274 58.6464H138.464L141.305 66.2847L142.128 68.8355C142.346 68.1872 142.483 67.7597 142.54 67.553C142.673 67.1303 142.815 66.7075 142.966 66.2847L145.835 58.6464H149.94L143.946 73.6129H140.353Z" fill="white"/>
<path d="M161.132 68.8496L165.109 69.5119C164.598 70.9588 163.788 72.0627 162.68 72.8237C161.582 73.5754 160.204 73.9512 158.547 73.9512C155.924 73.9512 153.983 73.1009 152.724 71.4004C151.73 70.0381 151.232 68.3187 151.232 66.2424C151.232 63.7621 151.886 61.822 153.193 60.4221C154.499 59.0128 156.151 58.3082 158.149 58.3082C160.393 58.3082 162.164 59.0457 163.461 60.5207C164.758 61.9864 165.379 64.2365 165.322 67.2712H155.323C155.351 68.4456 155.673 69.3616 156.289 70.0193C156.904 70.6675 157.671 70.9917 158.59 70.9917C159.215 70.9917 159.74 70.8226 160.166 70.4843C160.592 70.1461 160.914 69.6012 161.132 68.8496ZM161.359 64.8472C161.331 63.701 161.033 62.832 160.464 62.2401C159.896 61.6388 159.205 61.3381 158.391 61.3381C157.52 61.3381 156.8 61.6529 156.232 62.2823C155.664 62.9118 155.385 63.7668 155.394 64.8472H161.359Z" fill="white"/>
<path d="M172.409 73.6129H168.418V58.6464H172.125V60.7744C172.76 59.7691 173.328 59.1068 173.829 58.7873C174.341 58.4679 174.918 58.3082 175.562 58.3082C176.471 58.3082 177.347 58.5571 178.19 59.0551L176.954 62.5078C176.282 62.0756 175.657 61.8596 175.079 61.8596C174.521 61.8596 174.047 62.0146 173.659 62.3246C173.271 62.6253 172.963 63.1749 172.736 63.9735C172.518 64.7721 172.409 66.4444 172.409 68.9905V73.6129Z" fill="white"/>
<path d="M94.5605 88.0382V79.3798H98.2688C99.2014 79.3798 99.878 79.4585 100.299 79.616C100.723 79.7696 101.062 80.0452 101.316 80.4429C101.57 80.8406 101.697 81.2953 101.697 81.8072C101.697 82.4569 101.505 82.9943 101.12 83.4196C100.735 83.8409 100.16 84.1067 99.3938 84.2169C99.7748 84.4374 100.088 84.6796 100.334 84.9434C100.584 85.2072 100.92 85.6757 101.34 86.349L102.406 88.0382H100.299L99.0248 86.1541C98.5724 85.4808 98.2629 85.0576 98.0962 84.8843C97.9296 84.7071 97.753 84.587 97.5665 84.524C97.38 84.4571 97.0843 84.4236 96.6796 84.4236H96.3224V88.0382H94.5605ZM96.3224 83.0416H97.626C98.4712 83.0416 98.999 83.0062 99.2093 82.9353C99.4196 82.8644 99.5843 82.7424 99.7034 82.5691C99.8224 82.3959 99.8819 82.1793 99.8819 81.9194C99.8819 81.6281 99.8026 81.3938 99.6438 81.2166C99.4891 81.0355 99.2688 80.9213 98.9831 80.874C98.8403 80.8544 98.4117 80.8445 97.6974 80.8445H96.3224V83.0416Z" fill="white"/>
<path d="M103.352 80.9154V79.3798H105.025V80.9154H103.352ZM103.352 88.0382V81.7659H105.025V88.0382H103.352Z" fill="white"/>
<path d="M112.543 88.0382H110.989V87.1168C110.731 87.4751 110.425 87.7429 110.072 87.9201C109.723 88.0933 109.37 88.1799 109.013 88.1799C108.287 88.1799 107.664 87.8905 107.144 87.3117C106.628 86.729 106.37 85.9179 106.37 84.8784C106.37 83.8153 106.622 83.0081 107.126 82.4569C107.63 81.9017 108.267 81.6241 109.037 81.6241C109.743 81.6241 110.354 81.9155 110.87 82.4982V79.3798H112.543V88.0382ZM108.078 84.7662C108.078 85.4356 108.172 85.9199 108.358 86.2191C108.628 86.6522 109.005 86.8688 109.489 86.8688C109.874 86.8688 110.201 86.7073 110.471 86.3845C110.741 86.0577 110.876 85.5714 110.876 84.9257C110.876 84.2051 110.745 83.6873 110.483 83.3723C110.221 83.0534 109.886 82.8939 109.477 82.8939C109.08 82.8939 108.747 83.0514 108.477 83.3664C108.211 83.6775 108.078 84.1441 108.078 84.7662Z" fill="white"/>
<path d="M117.858 86.0419L119.525 86.3195C119.31 86.9259 118.971 87.3885 118.507 87.7074C118.046 88.0224 117.469 88.1799 116.775 88.1799C115.675 88.1799 114.862 87.8236 114.334 87.1109C113.918 86.54 113.709 85.8194 113.709 84.9493C113.709 83.9098 113.983 83.0967 114.531 82.51C115.078 81.9194 115.771 81.6241 116.608 81.6241C117.548 81.6241 118.29 81.9332 118.834 82.5514C119.378 83.1656 119.638 84.1086 119.614 85.3804H115.423C115.435 85.8726 115.57 86.2565 115.828 86.5321C116.086 86.8038 116.408 86.9396 116.792 86.9396C117.054 86.9396 117.275 86.8688 117.453 86.727C117.632 86.5853 117.767 86.3569 117.858 86.0419ZM117.953 84.3646C117.941 83.8842 117.816 83.52 117.578 83.2719C117.34 83.0199 117.05 82.8939 116.709 82.8939C116.344 82.8939 116.043 83.0258 115.804 83.2897C115.566 83.5535 115.449 83.9118 115.453 84.3646H117.953Z" fill="white"/>
<path d="M122.233 88.0382L120.15 79.3798H121.953L123.269 85.3273L124.864 79.3798H126.959L128.489 85.4277L129.828 79.3798H131.602L129.483 88.0382H127.614L125.876 81.5651L124.144 88.0382H122.233Z" fill="white"/>
<path d="M132.388 80.9154V79.3798H134.06V80.9154H132.388ZM132.388 88.0382V81.7659H134.06V88.0382H132.388Z" fill="white"/>
<path d="M138.679 81.7659V83.0888H137.536V85.6167C137.536 86.1285 137.546 86.4278 137.566 86.5144C137.59 86.5971 137.64 86.666 137.715 86.7211C137.794 86.7762 137.89 86.8038 138.001 86.8038C138.155 86.8038 138.38 86.7506 138.673 86.6443L138.816 87.9319C138.427 88.0972 137.987 88.1799 137.495 88.1799C137.193 88.1799 136.921 88.1307 136.679 88.0323C136.437 87.9299 136.259 87.8 136.144 87.6425C136.032 87.481 135.955 87.2645 135.911 86.9928C135.876 86.7999 135.858 86.4101 135.858 85.8234V83.0888H135.09V81.7659H135.858V80.5197L137.536 79.5511V81.7659H138.679Z" fill="white"/>
<path d="M141.507 79.3798V82.5632C142.046 81.9371 142.691 81.6241 143.441 81.6241C143.826 81.6241 144.173 81.695 144.483 81.8367C144.792 81.9785 145.024 82.1596 145.179 82.3801C145.338 82.6006 145.445 82.8447 145.501 83.1125C145.56 83.3802 145.59 83.7956 145.59 84.3587V88.0382H143.917V84.7248C143.917 84.0673 143.886 83.6499 143.822 83.4727C143.759 83.2956 143.645 83.1558 143.483 83.0534C143.324 82.9471 143.124 82.8939 142.882 82.8939C142.604 82.8939 142.356 82.9609 142.138 83.0947C141.919 83.2286 141.759 83.4314 141.655 83.7031C141.556 83.9708 141.507 84.3685 141.507 84.8961V88.0382H139.834V79.3798H141.507Z" fill="white"/>
<path d="M147.298 79.3798H150.518C151.245 79.3798 151.798 79.4349 152.179 79.5452C152.691 79.6948 153.129 79.9606 153.495 80.3425C153.86 80.7244 154.137 81.193 154.328 81.7482C154.518 82.2994 154.614 82.9806 154.614 83.7917C154.614 84.5043 154.524 85.1186 154.346 85.6344C154.127 86.2644 153.816 86.7743 153.411 87.1641C153.106 87.4594 152.693 87.6897 152.173 87.8551C151.784 87.9772 151.264 88.0382 150.614 88.0382H147.298V79.3798ZM149.06 80.8445V86.5794H150.376C150.868 86.5794 151.223 86.5518 151.441 86.4967C151.727 86.4258 151.963 86.3057 152.149 86.1364C152.34 85.9671 152.495 85.6895 152.614 85.3036C152.733 84.9138 152.792 84.3843 152.792 83.7149C152.792 83.0455 152.733 82.5317 152.614 82.1734C152.495 81.8151 152.328 81.5355 152.114 81.3347C151.899 81.1339 151.628 80.9981 151.298 80.9272C151.052 80.8721 150.57 80.8445 149.852 80.8445H149.06Z" fill="white"/>
<path d="M157.703 88.0382H156.03V81.7659H157.584V82.6577C157.85 82.2364 158.088 81.9588 158.298 81.8249C158.512 81.6911 158.754 81.6241 159.024 81.6241C159.405 81.6241 159.772 81.7285 160.125 81.9371L159.608 83.3841C159.326 83.203 159.064 83.1125 158.822 83.1125C158.588 83.1125 158.389 83.1774 158.227 83.3074C158.064 83.4334 157.935 83.6637 157.84 83.9984C157.748 84.3331 157.703 85.0339 157.703 86.101V88.0382Z" fill="white"/>
<path d="M160.852 80.9154V79.3798H162.524V80.9154H160.852ZM160.852 88.0382V81.7659H162.524V88.0382H160.852Z" fill="white"/>
<path d="M165.983 88.0382L163.435 81.7659H165.191L166.381 84.967L166.727 86.036C166.818 85.7643 166.875 85.5852 166.899 85.4985C166.955 85.3214 167.014 85.1442 167.078 84.967L168.28 81.7659H170L167.488 88.0382H165.983Z" fill="white"/>
<path d="M174.691 86.0419L176.357 86.3195C176.143 86.9259 175.804 87.3885 175.34 87.7074C174.879 88.0224 174.302 88.1799 173.607 88.1799C172.508 88.1799 171.695 87.8236 171.167 87.1109C170.75 86.54 170.542 85.8194 170.542 84.9493C170.542 83.9098 170.816 83.0967 171.363 82.51C171.911 81.9194 172.604 81.6241 173.441 81.6241C174.381 81.6241 175.123 81.9332 175.667 82.5514C176.211 83.1656 176.471 84.1086 176.447 85.3804H172.256C172.268 85.8726 172.403 86.2565 172.661 86.5321C172.919 86.8038 173.24 86.9396 173.625 86.9396C173.887 86.9396 174.107 86.8688 174.286 86.727C174.465 86.5853 174.6 86.3569 174.691 86.0419ZM174.786 84.3646C174.774 83.8842 174.649 83.52 174.411 83.2719C174.173 83.0199 173.883 82.8939 173.542 82.8939C173.177 82.8939 172.875 83.0258 172.637 83.2897C172.399 83.5535 172.282 83.9118 172.286 84.3646H174.786Z" fill="white"/>
<path d="M179.417 88.0382H177.744V81.7659H179.298V82.6577C179.564 82.2364 179.802 81.9588 180.012 81.8249C180.226 81.6911 180.469 81.6241 180.738 81.6241C181.119 81.6241 181.486 81.7285 181.84 81.9371L181.322 83.3841C181.04 83.203 180.778 83.1125 180.536 83.1125C180.302 83.1125 180.103 83.1774 179.941 83.3074C179.778 83.4334 179.649 83.6637 179.554 83.9984C179.463 84.3331 179.417 85.0339 179.417 86.101V88.0382Z" fill="white"/>
<path d="M181.887 88.0382V86.3786H183.56V88.0382H181.887Z" fill="white"/>
<path d="M190.792 83.6204L189.143 83.9157C189.087 83.5889 188.961 83.3428 188.762 83.1774C188.568 83.0121 188.314 82.9294 188 82.9294C187.584 82.9294 187.25 83.0731 187 83.3605C186.754 83.644 186.631 84.1204 186.631 84.7898C186.631 85.534 186.756 86.0596 187.006 86.3668C187.26 86.6739 187.599 86.8274 188.024 86.8274C188.341 86.8274 188.601 86.7388 188.804 86.5616C189.006 86.3805 189.149 86.0714 189.232 85.6344L190.875 85.912C190.705 86.6601 190.377 87.2251 189.893 87.607C189.409 87.989 188.76 88.1799 187.947 88.1799C187.022 88.1799 186.284 87.8905 185.732 87.3117C185.185 86.7329 184.911 85.9317 184.911 84.9079C184.911 83.8724 185.187 83.0672 185.738 82.4923C186.29 81.9135 187.036 81.6241 187.976 81.6241C188.746 81.6241 189.357 81.7895 189.81 82.1202C190.266 82.447 190.593 82.9471 190.792 83.6204Z" fill="white"/>
<path d="M191.679 84.8134C191.679 84.2622 191.816 83.7287 192.089 83.2129C192.363 82.6971 192.75 82.3033 193.25 82.0316C193.754 81.76 194.316 81.6241 194.935 81.6241C195.891 81.6241 196.675 81.9332 197.286 82.5514C197.897 83.1656 198.202 83.9433 198.202 84.8843C198.202 85.8332 197.893 86.6207 197.274 87.2468C196.659 87.8689 195.883 88.1799 194.947 88.1799C194.367 88.1799 193.814 88.05 193.286 87.7901C192.762 87.5303 192.363 87.1503 192.089 86.6502C191.816 86.1463 191.679 85.534 191.679 84.8134ZM193.393 84.902C193.393 85.5241 193.542 86.0006 193.839 86.3313C194.137 86.6621 194.504 86.8274 194.941 86.8274C195.377 86.8274 195.742 86.6621 196.036 86.3313C196.333 86.0006 196.482 85.5202 196.482 84.8902C196.482 84.276 196.333 83.8035 196.036 83.4727C195.742 83.142 195.377 82.9766 194.941 82.9766C194.504 82.9766 194.137 83.142 193.839 83.4727C193.542 83.8035 193.393 84.2799 193.393 84.902Z" fill="white"/>
<path d="M199.393 81.7659H200.935V82.6223C201.486 81.9568 202.143 81.6241 202.905 81.6241C203.31 81.6241 203.661 81.7068 203.958 81.8722C204.256 82.0376 204.5 82.2876 204.691 82.6223C204.968 82.2876 205.268 82.0376 205.589 81.8722C205.911 81.7068 206.254 81.6241 206.619 81.6241C207.083 81.6241 207.476 81.7186 207.798 81.9076C208.119 82.0927 208.359 82.3663 208.518 82.7286C208.633 82.9963 208.691 83.4294 208.691 84.0279V88.0382H207.018V84.4532C207.018 83.831 206.96 83.4294 206.845 83.2483C206.691 83.0121 206.452 82.8939 206.131 82.8939C205.897 82.8939 205.677 82.9648 205.47 83.1066C205.264 83.2483 205.115 83.457 205.024 83.7326C204.933 84.0043 204.887 84.4354 204.887 85.0261V88.0382H203.214V84.6008C203.214 83.9905 203.185 83.5968 203.125 83.4196C203.066 83.2424 202.972 83.1105 202.845 83.0239C202.722 82.9373 202.554 82.8939 202.339 82.8939C202.081 82.8939 201.849 82.9628 201.643 83.1007C201.437 83.2385 201.288 83.4373 201.197 83.6972C201.109 83.957 201.066 84.3882 201.066 84.9906V88.0382H199.393V81.7659Z" fill="white"/>
</svg>
