<svg width="24" height="24" viewBox="0 0 24 24" fill="none" xmlns="http://www.w3.org/2000/svg">
<g clip-path="url(#clip0_497_1686)">
<path d="M0.516262 11.8564C0.515695 13.8728 1.05084 15.8418 2.06842 17.5772L0.418945 23.5067L6.58222 21.9156C8.28691 22.8293 10.1969 23.308 12.1378 23.3082H12.1429C18.5502 23.3082 23.7659 18.1749 23.7687 11.8654C23.7699 8.80798 22.5617 5.93301 20.3665 3.77003C18.1716 1.60724 15.2526 0.415519 12.1424 0.414124C5.73434 0.414124 0.519002 5.54715 0.516357 11.8564" fill="url(#paint0_linear_497_1686)"/>
<path d="M0.101096 11.8527C0.100435 13.9417 0.654763 15.981 1.70862 17.7786L0 23.9207L6.38427 22.2726C8.14335 23.2168 10.1239 23.7147 12.1392 23.7154H12.1444C18.7816 23.7154 24.1847 18.3975 24.1875 11.8621C24.1886 8.69489 22.9369 5.71656 20.6633 3.47609C18.3894 1.23591 15.366 0.00130233 12.1444 0C5.50606 0 0.103742 5.31721 0.101096 11.8527ZM3.90316 17.469L3.66478 17.0965C2.6627 15.5277 2.13379 13.7149 2.13455 11.8534C2.13663 6.4213 6.62681 2.00186 12.1482 2.00186C14.822 2.00298 17.3349 3.02921 19.2249 4.89116C21.1148 6.7533 22.1548 9.22865 22.1541 11.8614C22.1517 17.2935 17.6614 21.7135 12.1444 21.7135H12.1404C10.344 21.7126 8.58222 21.2376 7.04574 20.34L6.6801 20.1265L2.89154 21.1045L3.90316 17.469Z" fill="url(#paint1_linear_497_1686)"/>
<path d="M9.13481 6.89746C8.90937 6.40416 8.67213 6.39421 8.45775 6.38556C8.2822 6.37811 8.08152 6.37867 7.88103 6.37867C7.68034 6.37867 7.35429 6.453 7.07868 6.74928C6.80279 7.04583 6.02539 7.76249 6.02539 9.22007C6.02539 10.6776 7.10372 12.0864 7.25404 12.2843C7.40455 12.4817 9.33577 15.5686 12.3944 16.7562C14.9363 17.743 15.4536 17.5468 16.0053 17.4973C16.5571 17.448 17.7857 16.7808 18.0364 16.089C18.2872 15.3973 18.2872 14.8043 18.212 14.6804C18.1368 14.557 17.9361 14.4829 17.6352 14.3348C17.3343 14.1867 15.8548 13.4698 15.579 13.371C15.3031 13.2722 15.1025 13.2229 14.9018 13.5195C14.7011 13.8157 14.1249 14.4829 13.9493 14.6804C13.7738 14.8785 13.5982 14.9031 13.2973 14.755C12.9962 14.6063 12.0271 14.2938 10.8773 13.2846C9.98279 12.4993 9.37886 11.5296 9.20331 11.2329C9.02776 10.9367 9.18451 10.7762 9.33539 10.6285C9.4706 10.4958 9.63642 10.2826 9.78702 10.1096C9.93706 9.93663 9.98713 9.81318 10.0875 9.6156C10.1879 9.41783 10.1376 9.24481 10.0625 9.09663C9.98713 8.94844 9.40238 7.48323 9.13481 6.89746Z" fill="white"/>
</g>
<defs>
<linearGradient id="paint0_linear_497_1686" x1="1167.91" y1="2309.67" x2="1167.91" y2="0.414124" gradientUnits="userSpaceOnUse">
<stop stop-color="#1FAF38"/>
<stop offset="1" stop-color="#60D669"/>
</linearGradient>
<linearGradient id="paint1_linear_497_1686" x1="1209.38" y1="2392.07" x2="1209.38" y2="0" gradientUnits="userSpaceOnUse">
<stop stop-color="#F9F9F9"/>
<stop offset="1" stop-color="white"/>
</linearGradient>
<clipPath id="clip0_497_1686">
<rect width="24" height="24" fill="white"/>
</clipPath>
</defs>
</svg>
