<svg width="15" height="15" viewBox="0 0 15 15" fill="none" xmlns="http://www.w3.org/2000/svg">
<rect width="15" height="15" rx="2" fill="#6537B5"/>
<g clip-path="url(#clip0_4247_4027)">
<path d="M5.33482 7.17145H9.66494V8.25398H5.33482V7.17145ZM6.41735 11.5016H4.25229V2.84132H8.04115V5.54765H10.7475V7.22557L11.83 6.14304V5.00638L8.58241 1.75879H4.25229C3.96518 1.75879 3.68983 1.87284 3.48682 2.07586C3.28381 2.27887 3.16975 2.55422 3.16975 2.84132V11.5016C3.16975 11.7887 3.28381 12.064 3.48682 12.267C3.68983 12.4701 3.96518 12.5841 4.25229 12.5841H6.41735V11.5016ZM5.33482 10.419H7.55401L8.04115 9.9319V9.33651H5.33482V10.419ZM11.9383 7.71271C11.9924 7.71271 12.1006 7.76684 12.1548 7.82097L12.8584 8.52461C12.9667 8.63287 12.9667 8.84937 12.8584 8.95763L12.3171 9.49889L11.1805 8.36223L11.7218 7.82097C11.7759 7.76684 11.83 7.71271 11.9383 7.71271ZM11.9383 9.82365L8.63654 13.1254H7.49988V11.9887L10.8016 8.68699L11.9383 9.82365Z" fill="white"/>
</g>
<defs>
<clipPath id="clip0_4247_4027">
<rect x="1.00468" y="0.675781" width="12.9904" height="12.9904" rx="2" fill="white"/>
</clipPath>
</defs>
</svg>
